<svg xmlns="http://www.w3.org/2000/svg" height="89.333" width="142.667"><defs><clipPath id="a"><path d="M930.918 566.707c-3.637.629 19.266-5.887 31.285-6.754 14.035-2.015 27.086-3.508 38.067-5.117 21.66-3.094 36.06-6.781 38.89-12.246 2.82-5.465-6.87-11.981-26.66-16.61-10.19-2.367-23.09-4.265-39.113-4.507-17.672 2.41-32.461-5.504-70.922 19.539-26.781 25.937-28.902 47.793-38.457 70.793-2.778 8.273-20.774 48.8-25.699 55.078 13.265-1.395 22.777-4.977 32.461-13.668 18.46-15.387 23.191-27.309 30.582-38.797 12.148-22.246 25.679-45.816 29.566-47.711z" clip-rule="evenodd"/></clipPath><linearGradient id="b" gradientTransform="rotate(-32.58 1592.496 -1531.464) scale(10)" gradientUnits="userSpaceOnUse" x2="22.007" x1="-22.007"><stop offset="0" stop-color="red"/><stop offset="1" stop-color="#ff0"/></linearGradient><clipPath id="c"><path d="M783.496 578.824c-1.308-2.855 10.645 13.25 13.676 23.434 4.683 10.972 8.484 21.351 12.117 29.742 6.981 16.355 13.422 25.977 20.199 24.246 6.617-1.664 12.637-14.519 15.117-34.453 1.227-10.238 1.594-22.457-.394-36.32-5.199-13.684 1.668-31.582-33.449-49.676-36.981-7.875-66.524 4.781-100.664 11.621-12.688 3.246-80.035 15.434-91.547 15.129 5.433 12.906 13.75 19.926 30.097 22.926 28.176 6.422 47.082 1.855 65.29.289 33.222-4.84 66.542-9.121 69.558-6.938z" clip-rule="evenodd"/></clipPath><linearGradient id="d" gradientTransform="rotate(-129.6 525.216 126.89) scale(10)" gradientUnits="userSpaceOnUse" x2="18.266" x1="-18.266"><stop offset="0" stop-color="#039"/><stop offset="1" stop-color="#0cf"/></linearGradient><clipPath id="e"><path d="M740.672 448.973c3.973-2.766-18.125 17.519-32.926 25.953-16.297 10.812-32.219 20.726-45.305 29.469-26.414 17.519-41.898 30.668-38.086 36.855 3.657 6.113 26.176 4.07 58.438-5.969 15.973-5.031 34.316-11.953 54.238-21.918 18.61-12.738 43.293-15.605 63.914-58.105 7.188-38.961-11.39-62.531-23.382-94.145-5.586-11.804-29.118-78.508-29.852-91.07-18.449 9.57-28.012 20.824-30.746 39.59-6.664 33.039 2.301 51.672 6.695 70.375 10.528 32.719 19.856 64.816 17.012 68.965z" clip-rule="evenodd"/></clipPath><linearGradient id="f" gradientTransform="scale(-10) rotate(-82.7 -61.446 14.477)" gradientUnits="userSpaceOnUse" x2="22.122" x1="-22.122"><stop offset="0" stop-color="#1c2433"/><stop offset="1" stop-color="#039"/></linearGradient><clipPath id="g"><path d="M896.41 346.762c3.324 2.465-20.93-10-32.09-20.668-14.453-11.422-28.207-23.121-40.566-32.969-25.789-20.445-45.422-32.125-53.219-26.129-7.746 6.004-1.476 28.746 16.867 57.902 8.887 13.918 20.286 29.168 35.258 44.25 17.75 12.137 24.098 33.86 73.418 33.692 39.965-10.004 60.84-34.77 88.465-55.949 9.848-8.434 62.527-47.254 72.047-51.239-8.37-11.726-17.6-16.339-32.84-13.562-28.113 3.64-43.793 16.535-60.543 25.957-30.309 19.828-62.117 39.691-66.797 38.715z" clip-rule="evenodd"/></clipPath><linearGradient id="h" gradientTransform="scale(-10) rotate(-.7 -2013.272 7362.363)" gradientUnits="userSpaceOnUse" x2="16.332" x1="-16.332"><stop offset="0" stop-color="#093"/><stop offset="1" stop-color="#033"/></linearGradient><clipPath id="i"><path d="M1003.58 433.777c-2.07 3.571 7.97-20.16 16.5-32.629 9.03-15.109 18.17-29.476 25.64-41.984 15.32-25.637 23.87-43.797 19.35-48.418-4.56-4.574-21.98 5.984-45.19 28.625-11.46 11.25-24.345 25.309-37.2 42.555-10.563 18.961-30.614 32.297-28.977 73.558 10.379 28.602 32.789 34.512 51.137 46.852 7.04 3.859 37.77 25.969 40.82 31.008 8.58-10.879 11.95-19.34 9.75-28.992-2.85-18.805-12.57-25.211-19.88-33.961-15.94-15.309-32.68-32.582-31.95-36.614z" clip-rule="evenodd"/></clipPath><linearGradient id="j" gradientTransform="rotate(-111.33 625.905 -168.082) scale(10)" gradientUnits="userSpaceOnUse" x2="25.68" x1="-25.68"><stop offset="0" stop-color="#006"/><stop offset="1" stop-color="#00f"/></linearGradient></defs><path d="M20.008 48.619c0 2.864-.96 5.097-2.888 6.7-1.804 1.499-4.18 2.247-7.144 2.247-2.858 0-5.292-.561-7.3-1.691-1.273-.711-1.91-1.622-1.91-2.732 0-.73.3-1.48.899-2.247.505-.642 1.154-.967 1.953-.967.649 0 1.697.268 3.144.805 1.448.537 2.596.805 3.444.805.817 0 1.535-.194 2.147-.574.711-.45 1.066-1.055 1.066-1.822 0-.768-.305-1.373-.91-1.815-.612-.45-1.997-.999-4.156-1.66-2.302-.699-3.937-1.435-4.898-2.215-1.44-1.173-2.164-2.976-2.164-5.403 0-2.777.967-4.905 2.907-6.383 1.735-1.329 4.024-1.99 6.863-1.99 1.722 0 3.264.274 4.617.83 1.822.736 2.727 1.834 2.727 3.294 0 .798-.269 1.46-.805 1.984-.536.518-1.204.78-2.01.78-.211 0-.992-.181-2.339-.555-1.104-.306-1.965-.456-2.595-.456a3.87 3.87 0 0 0-1.866.456c-.68.368-1.023.86-1.023 1.49 0 .625.187 1.086.555 1.38.325.25 1.08.574 2.259.979 3.406 1.148 5.565 2.047 6.489 2.683 1.959 1.366 2.938 3.394 2.938 6.077M39.551 33.102c0 1.834-1.048 2.752-3.144 2.752H33V53.96c0 2.152-1.01 3.232-3.032 3.232-.961 0-1.716-.3-2.265-.905-.537-.58-.805-1.354-.805-2.327V35.854h-3.332c-2.096 0-3.144-.918-3.144-2.752 0-1.884 1.048-2.827 3.144-2.827h12.84c2.097 0 3.145.943 3.145 2.827M61.73 54.347c0 .836-.282 1.497-.843 1.99-.536.468-1.23.705-2.084.705-1.547 0-2.596-.948-3.144-2.845l-.75-2.583h-9.92l-.817 2.583c-.586 1.847-1.66 2.77-3.226 2.77-1.897 0-2.845-.848-2.845-2.552 0-.823.225-1.84.674-3.063l6.402-17.264c1.116-3.013 2.664-4.523 4.642-4.523 2.084 0 3.644 1.384 4.679 4.149l6.7 17.9c.35.942.531 1.853.531 2.733zm-8.66-8.311l-3.058-9.77h-.081l-3.22 9.77h6.358M83.288 54.34c0 .911-.375 1.635-1.117 2.16-.65.46-1.454.692-2.402.692-.842 0-1.628-.462-2.359-1.391l-7.524-9.497h-.075v7.662c0 .949-.262 1.716-.786 2.302-.549.618-1.292.924-2.234.924-2.027 0-3.045-1.098-3.045-3.3V33.263c0-.898.306-1.622.918-2.184.58-.536 1.322-.805 2.227-.805h7.113c2.682 0 4.835.737 6.464 2.21 1.678 1.534 2.52 3.63 2.52 6.288 0 1.841-.58 3.445-1.74 4.817-1.161 1.367-2.652 2.19-4.48 2.477l5.465 5.84c.705.749 1.055 1.56 1.055 2.434zm-6.364-15.436c0-.848-.3-1.572-.893-2.164-.599-.593-1.322-.886-2.177-.886h-4.043v5.99h3.819c.886 0 1.647-.263 2.283-.787.673-.562 1.011-1.279 1.011-2.153M61.303 64.764c0 1.834-1.048 2.752-3.145 2.752h-3.406v18.106c0 2.152-1.01 3.232-3.032 3.232-.961 0-1.716-.3-2.265-.905-.537-.58-.805-1.354-.805-2.327V67.516h-3.332c-2.096 0-3.144-.918-3.144-2.752 0-1.884 1.048-2.827 3.144-2.827h12.84c2.097 0 3.145.943 3.145 2.827M82.924 86.009c0 .836-.28 1.497-.842 1.99-.537.468-1.23.705-2.084.705-1.547 0-2.596-.948-3.144-2.845l-.75-2.583h-9.92l-.817 2.583c-.586 1.847-1.66 2.77-3.226 2.77-1.897 0-2.845-.848-2.845-2.552 0-.823.225-1.84.674-3.063l6.401-17.265c1.117-3.013 2.664-4.523 4.643-4.523 2.083 0 3.643 1.385 4.679 4.15l6.7 17.9c.35.942.531 1.853.531 2.733zm-8.66-8.311l-3.057-9.77h-.082l-3.219 9.77h6.358M100.59 85.878c0 .798-.275 1.453-.818 1.971-.537.518-1.217.78-2.028.78h-9.733c-.836 0-1.547-.262-2.14-.786-.618-.55-.93-1.236-.93-2.06v-20.85c0-.968.262-1.735.787-2.315.542-.605 1.29-.905 2.252-.905 2.015 0 3.026 1.123 3.026 3.375v17.963h6.657c.873 0 1.579.256 2.115.761.543.512.812 1.198.812 2.066M123.416 85.484c0 1.005-.269 1.81-.805 2.421-.568.63-1.347.949-2.34.949-.986 0-1.984-.562-2.994-1.691l-9.21-10.289v8.754c0 2.153-1.06 3.226-3.175 3.226-.911 0-1.629-.3-2.147-.905-.493-.574-.742-1.317-.742-2.24V64.858c0-.917.262-1.66.786-2.24.549-.605 1.273-.905 2.178-.905 2.065 0 3.1 1.098 3.1 3.288v7.306l8.573-9.29c.8-.868 1.697-1.304 2.695-1.304.756 0 1.442.312 2.06.93.624.624.935 1.31.935 2.065 0 .736-.412 1.522-1.235 2.358l-7.188 7.294 8.492 9.216c.68.73 1.017 1.366 1.017 1.908" fill="#20364f"/><g clip-path="url(#a)" transform="matrix(.13333 0 0 -.13333 0 89.333)"><path d="M930.918 566.707c-3.637.629 19.266-5.887 31.285-6.754 14.035-2.015 27.086-3.508 38.067-5.117 21.66-3.094 36.06-6.781 38.89-12.246 2.82-5.465-6.87-11.981-26.66-16.61-10.19-2.367-23.09-4.265-39.113-4.507-17.672 2.41-32.461-5.504-70.922 19.539-26.781 25.937-28.902 47.793-38.457 70.793-2.778 8.273-20.774 48.8-25.699 55.078 13.265-1.395 22.777-4.977 32.461-13.668 18.46-15.387 23.191-27.309 30.582-38.797 12.148-22.246 25.679-45.816 29.566-47.711" fill="url(#b)"/></g><g clip-path="url(#c)" transform="matrix(.13333 0 0 -.13333 0 89.333)"><path d="M783.496 578.824c-1.308-2.855 10.645 13.25 13.676 23.434 4.683 10.972 8.484 21.351 12.117 29.742 6.981 16.355 13.422 25.977 20.199 24.246 6.617-1.664 12.637-14.519 15.117-34.453 1.227-10.238 1.594-22.457-.394-36.32-5.199-13.684 1.668-31.582-33.449-49.676-36.981-7.875-66.524 4.781-100.664 11.621-12.688 3.246-80.035 15.434-91.547 15.129 5.433 12.906 13.75 19.926 30.097 22.926 28.176 6.422 47.082 1.855 65.29.289 33.222-4.84 66.542-9.121 69.558-6.938" fill="url(#d)"/></g><g clip-path="url(#e)" transform="matrix(.13333 0 0 -.13333 0 89.333)"><path d="M740.672 448.973c3.973-2.766-18.125 17.519-32.926 25.953-16.297 10.812-32.219 20.726-45.305 29.469-26.414 17.519-41.898 30.668-38.086 36.855 3.657 6.113 26.176 4.07 58.438-5.969 15.973-5.031 34.316-11.953 54.238-21.918 18.61-12.738 43.293-15.605 63.914-58.105 7.188-38.961-11.39-62.531-23.382-94.145-5.586-11.804-29.118-78.508-29.852-91.07-18.449 9.57-28.012 20.824-30.746 39.59-6.664 33.039 2.301 51.672 6.695 70.375 10.528 32.719 19.856 64.816 17.012 68.965" fill="url(#f)"/></g><g clip-path="url(#g)" transform="matrix(.13333 0 0 -.13333 0 89.333)"><path d="M896.41 346.762c3.324 2.465-20.93-10-32.09-20.668-14.453-11.422-28.207-23.121-40.566-32.969-25.789-20.445-45.422-32.125-53.219-26.129-7.746 6.004-1.476 28.746 16.867 57.902 8.887 13.918 20.286 29.168 35.258 44.25 17.75 12.137 24.098 33.86 73.418 33.692 39.965-10.004 60.84-34.77 88.465-55.949 9.848-8.434 62.527-47.254 72.047-51.239-8.37-11.726-17.6-16.339-32.84-13.562-28.113 3.64-43.793 16.535-60.543 25.957-30.309 19.828-62.117 39.691-66.797 38.715" fill="url(#h)"/></g><g clip-path="url(#i)" transform="matrix(.13333 0 0 -.13333 0 89.333)"><path d="M1003.58 433.777c-2.07 3.571 7.97-20.16 16.5-32.629 9.03-15.109 18.17-29.476 25.64-41.984 15.32-25.637 23.87-43.797 19.35-48.418-4.56-4.574-21.98 5.984-45.19 28.625-11.46 11.25-24.345 25.309-37.2 42.555-10.563 18.961-30.614 32.297-28.977 73.558 10.379 28.602 32.789 34.512 51.137 46.852 7.04 3.859 37.77 25.969 40.82 31.008 8.58-10.879 11.95-19.34 9.75-28.992-2.85-18.805-12.57-25.211-19.88-33.961-15.94-15.309-32.68-32.582-31.95-36.614" fill="url(#j)"/></g><path d="M127.84 8.62c-1.057-.65-2.37-.455-2.935.452-.577.926-.16 2.234.934 2.912 1.095.672 2.426.437 2.966-.515.523-.928.094-2.2-.964-2.849" fill="#ff5000" fill-rule="evenodd"/><path d="M98.229 6.44c-.929.646-.597 2.085.784 3.197 1.388 1.123 3.252 1.469 4.153.78.882-.67.498-2.087-.845-3.17-1.341-1.083-3.164-1.452-4.092-.806" fill="#007fcb" fill-rule="evenodd"/><path d="M88.658 31.676c.448 1.467 2.596 2.33 4.75 1.885 2.098-.43 3.374-1.93 2.891-3.343-.476-1.4-2.52-2.225-4.591-1.855-2.113.377-3.498 1.846-3.05 3.313" fill="#172645" fill-rule="evenodd"/><path d="M120.296 44.941c-1.532-.344-2.937.942-3.134 2.927-.185 2.037.959 4.002 2.563 4.33 1.596.328 2.974-1.083 3.104-3.103.117-1.977-1-3.81-2.533-4.154" fill="#005d33" fill-rule="evenodd"/><path d="M141.217 33.105c-.214-1.22-1.617-2.383-3.16-2.637-1.554-.257-2.686.514-2.518 1.74.182 1.246 1.63 2.465 3.225 2.707 1.583.24 2.667-.59 2.453-1.81" fill="#00a" fill-rule="evenodd"/></svg>