<svg xmlns="http://www.w3.org/2000/svg" height="466.387" width="632.52"><path d="M0 466.387h632.521V-.004H0v466.39" fill="#fff" fill-rule="evenodd"/><path d="M214.035 250.997L365.59 403.442V282.997l-30.223-32H214.035" fill="#b4bd1b"/><path d="M408.257 361.664l-40 41.778v-81.778zM210.924 373.664l60-60-60-59.333zM208.257 186.997V65.664l-150.666 152h120.666l30-30.667" fill="#5c554a"/><path d="M177.59 222.33h-120l150.667 151.334V252.997l-30.666-30.666" fill="#a4a19b"/><path d="M241.221 209.23c4.555-.747 11.015-1.495 15.978-1.495 7.344 0 11.356 2.584 11.356 10.606v23.323h-4.558l-.678-5.44c-2.584 2.652-7.616 6.052-13.667 6.052-5.916 0-9.928-3.265-9.928-9.248v-3.603c0-5.168 3.4-8.16 9.18-8.16h13.803v-2.924c0-4.078-1.496-5.71-6.732-5.71-3.467 0-9.179.408-14.211.884zm4.419 23.118c0 3.468 1.564 4.964 5.168 4.964 3.264.068 8.09-1.564 11.899-4.964v-6.663h-12.783c-3.196.136-4.284 1.768-4.284 4.555v2.108M284.536 206.443c0 2.788-.068 5.032-.612 7.344 3.944-4.012 8.295-6.052 12.783-6.052 8.158 0 11.966 4.828 11.966 17.27 0 11.355-3.332 17.475-14.686 17.475-4.623 0-10.811-.816-15.231-2.38v-46.032h5.78zm0 29.985a32.652 32.652 0 0 0 9.315 1.156c6.392-.068 8.772-3.195 8.84-12.579-.068-9.11-1.632-12.238-8.024-12.238-3.468 0-6.255 1.902-10.131 4.896v18.765M322.956 213.787c5.032-3.808 9.927-6.052 14.823-6.052 5.846 0 8.974 3.128 8.974 9.112v24.817h-5.78v-23.187c0-4.418-1.358-5.846-4.758-5.846-3.944 0-7.48 1.972-12.783 5.236v23.797h-5.78v-33.113h4.896l.408 5.236M361.648 227.93c.612 7.886 3.672 9.654 10.47 9.654 3.537 0 8.091-.34 11.491-.816l.612 3.876c-3.128 1.292-9.042 1.836-12.85 1.836-11.423 0-15.843-4.76-15.843-17.475 0-12.986 4.556-17.27 15.23-17.27 9.995 0 14.211 3.672 14.211 10.812.068 5.914-2.38 9.382-7.888 9.382zm13.939-4.489c2.992 0 3.604-2.448 3.604-4.894-.07-4.216-2.246-5.916-8.16-5.916-6.935 0-9.247 2.448-9.451 10.81h14.007M433.043 240.032c-.271 1.02-1.155 1.632-2.243 1.632h-5.236c-1.088 0-2.04-.748-2.244-1.836l-5.439-22.505c-.409-1.7-.68-3.4-1.088-5.236h-.816l-1.156 5.236-5.37 22.505c-.274 1.088-1.158 1.836-2.312 1.836h-5.168c-1.088 0-1.972-.612-2.244-1.632l-9.655-31.481h5.983l6.868 24.409c.476 1.632.816 3.332 1.088 4.964h.882l1.224-4.964 5.508-22.573c.204-1.088 1.02-1.836 2.176-1.836h5.235c1.088 0 1.904.748 2.176 1.904l5.44 22.505c.34 1.632.816 3.264 1.156 4.964h.883c.409-1.7.612-3.264 1.157-4.964l6.867-24.41h5.984l-9.656 31.482M455.281 226.093c-5.372-1.292-7.478-3.808-7.478-9.246 0-7.684 3.876-9.248 12.918-9.112 4.352.068 9.859.408 13.939 1.02l-.476 4.216c-4.148-.136-8.432-.34-12.579-.34-6.12-.068-8.16.068-8.16 4.216 0 3.468 1.634 4.01 4.828 4.758l9.655 2.176c5.236 1.292 7.684 3.468 7.684 9.112 0 8.159-4.555 9.518-14.143 9.518-2.38 0-7.342-.067-12.986-.952l.408-4.215c3.264.204 7.138.34 11.422.272 7.411 0 9.723-.68 9.723-4.623 0-3.264-2.039-3.876-5.236-4.624l-9.519-2.176M487.65 233.64c1.631 0 2.175.544 2.175 2.176v3.672c0 1.632-.544 2.176-2.176 2.176h-1.904c-1.562 0-2.174-.544-2.174-2.176v-3.672c0-1.632.612-2.176 2.174-2.176h1.904M519.879 213.175h-1.904c-3.672 0-7.139 1.564-12.375 4.216v24.273h-5.779v-33.113h4.487l.612 5.236c4.828-3.808 9.656-6.052 14.143-6.052h1.497l-.681 5.44M555.237 241.664h-4.622l-.41-4.759c-4.962 3.739-9.518 5.643-14.278 5.643-5.984 0-9.043-3.128-9.043-9.112v-24.885h5.78v23.254c-.068 4.215 1.427 5.711 5.235 5.711 3.536 0 6.732-1.632 11.558-4.759v-24.206h5.78v33.113M409.85 323.841l-2.177 6.831h-2.912l7.104-21.057c.128-.474.544-.759 1.056-.759h2.944c.512 0 .928.285 1.056.759l7.106 21.057h-2.912l-2.176-6.83zm5.535-11.064a39.072 39.072 0 0 1-.544-1.772h-.896l-.544 1.772-2.784 8.663h7.552l-2.784-8.663M426.808 318.563c0-2.182 1.185-3.352 3.457-3.352 2.72 0 5.6 0 8.16.253l-.096 1.897h-6.944c-1.312 0-1.888.568-1.888 1.898v11.413h-2.689v-12.11M443.513 324.284c.287 3.67 1.696 4.49 4.896 4.49 1.696 0 3.84-.158 5.44-.378l.258 1.801c-1.44.6-4.258.854-6.05.854-5.344 0-7.424-2.214-7.424-8.126 0-6.038 2.143-8.03 7.136-8.03 4.704 0 6.688 1.708 6.72 5.028 0 2.749-1.12 4.361-3.712 4.361zm6.56-2.085c1.378 0 1.696-1.139 1.664-2.276 0-1.962-1.024-2.751-3.84-2.751-3.233 0-4.352 1.137-4.416 5.027h6.592M472.219 330.672h-2.69v-7.145h-8.193v7.145h-2.688v-15.397h2.688v6.196h8.193v-6.196h2.69v15.397M483.961 317.487v13.185h-2.721v-13.185h-5.664v-2.212h14.017v2.212h-5.632M504.665 330.26c-1.537.537-3.488.79-5.313.79-5.408 0-7.392-2.149-7.392-8.093s2.016-8.062 7.392-8.062c1.41 0 3.49.158 5.025.728l-.352 1.738a52.323 52.323 0 0 0-4.225-.189c-3.68 0-4.992 1.296-4.992 5.785 0 4.522 1.312 5.818 4.992 5.818.961 0 3.01-.064 4.61-.316l.255 1.801M515.128 317.487v13.185h-2.72v-13.185h-5.665v-2.212h14.018v2.212h-5.633M533.656 322.799c2.912.221 3.904 1.613 3.904 4.078 0 3.162-1.727 4.016-6.24 4.016-3.296 0-4.992-.032-7.201-.19v-15.396c1.953-.159 3.457-.191 6.337-.191 4.832 0 6.56.853 6.56 4.11 0 2.182-.992 3.289-3.36 3.478zm-2.88-1.012c2.688 0 3.648-.474 3.648-2.339 0-1.77-1.056-2.213-4.064-2.213a69.87 69.87 0 0 0-3.68 0v4.552zm-4.096 6.956c1.12 0 2.592.032 4.256.032 2.88 0 3.904-.475 3.904-2.467 0-1.96-1.056-2.592-4.064-2.592h-4.096v5.027M555.8 322.99c0 5.911-1.984 8.093-7.328 8.093-5.377 0-7.361-2.182-7.361-8.094 0-5.881 1.984-8.094 7.361-8.094 5.344 0 7.328 2.213 7.328 8.094zm-11.841 0c0 4.489 1.088 5.817 4.513 5.817 3.39 0 4.48-1.328 4.48-5.818 0-4.49-1.09-5.817-4.48-5.817-3.425 0-4.513 1.327-4.513 5.817M462.393 355.13c5.472 0 7.266 1.643 7.266 6.417 0 5.628-2.53 6.292-7.746 6.292-2.368 0-4.48-.063-6.944-.285h-.064V345.74c2.304-.126 4.576-.19 6.848-.19 2.24 0 4.48.064 6.72.19l-.254 2.308H457.72v7.082zm-4.672 10.275c1.216.03 2.848.03 4.672.03 3.52 0 4.416-.726 4.416-4.014 0-3.067-.768-4.11-4.416-4.11h-4.672v8.094M485.05 367.554v-10.212c0-.664.065-1.296.095-2.055h-.064c-.256.6-.704 1.297-1.088 1.802l-7.936 10.465h-2.241v-15.397h2.465v10.212c0 .696-.033 1.297-.096 2.055h.063c.321-.632.737-1.296 1.121-1.77l7.936-10.497h2.208v15.397h-2.464M491.8 352.378c1.728-.41 3.488-.473 4.801-.473 5.152 0 7.008.758 7.008 4.11 0 2.213-.8 3.35-3.264 3.572v.095c2.72.221 3.84 1.485 3.84 4.078 0 3.256-1.92 4.079-6.688 4.079-1.921 0-4.257-.126-6.209-.474l.224-2.055c1.44.126 3.744.253 5.793.253 3.136 0 4.064-.506 4.064-2.372 0-1.928-1.024-2.497-4.033-2.497h-3.712v-1.993h3.712c2.785 0 3.585-.505 3.585-2.339 0-1.802-.992-2.182-4.288-2.182-1.664 0-3.457.096-4.641.254l-.192-2.056M522.041 367.554h-2.689v-7.145h-8.192v7.145h-2.688v-15.397h2.688v6.197h8.192v-6.197h2.69v15.397M529.24 361.167c.288 3.669 1.696 4.49 4.896 4.49 1.697 0 3.84-.158 5.44-.379l.257 1.802c-1.44.6-4.257.854-6.049.854-5.344 0-7.424-2.213-7.424-8.126 0-6.038 2.144-8.03 7.137-8.03 4.704 0 6.688 1.707 6.72 5.027 0 2.75-1.12 4.362-3.713 4.362zm6.56-2.086c1.377 0 1.697-1.138 1.664-2.276 0-1.96-1.024-2.75-3.84-2.75-3.232 0-4.352 1.137-4.416 5.026h6.592M556.345 367.143c-1.537.537-3.488.791-5.313.791-5.408 0-7.392-2.15-7.392-8.094 0-5.944 2.016-8.062 7.392-8.062 1.408 0 3.49.158 5.025.727l-.352 1.739a52.332 52.332 0 0 0-4.225-.19c-3.68 0-4.992 1.297-4.992 5.786 0 4.521 1.312 5.817 4.992 5.817.96 0 3.01-.063 4.61-.316l.255 1.802M433.305 404.437h-2.816v-10.465h-10.177v10.465h-2.815v-21.815h2.815v8.947h10.177v-8.947h2.816v21.815M452.57 396.754c0 5.912-1.985 8.094-7.33 8.094-5.376 0-7.36-2.182-7.36-8.094 0-5.88 1.984-8.093 7.36-8.093 5.345 0 7.33 2.213 7.33 8.093zm-11.842 0c0 4.49 1.088 5.818 4.512 5.818 3.393 0 4.481-1.328 4.481-5.818 0-4.49-1.088-5.817-4.481-5.817-3.424 0-4.512 1.328-4.512 5.817M466.425 396.565c2.912.221 3.904 1.612 3.904 4.078 0 3.162-1.728 4.016-6.24 4.016-3.297 0-4.993-.032-7.201-.19v-15.397c1.952-.158 3.456-.19 6.336-.19 4.833 0 6.561.853 6.561 4.11 0 2.182-.992 3.288-3.36 3.477zm-2.88-1.012c2.688 0 3.648-.474 3.648-2.34 0-1.77-1.056-2.213-4.065-2.213a70.167 70.167 0 0 0-3.68 0v4.553zm-4.097 6.956c1.12 0 2.593.03 4.257.03 2.88 0 3.904-.473 3.904-2.465 0-1.96-1.056-2.593-4.064-2.593h-4.097v5.028M488.568 396.754c0 5.912-1.984 8.094-7.328 8.094-5.377 0-7.36-2.182-7.36-8.094 0-5.88 1.983-8.093 7.36-8.093 5.344 0 7.328 2.213 7.328 8.093zm-11.84 0c0 4.49 1.088 5.818 4.512 5.818 3.392 0 4.481-1.328 4.481-5.818 0-4.49-1.089-5.817-4.481-5.817-3.424 0-4.512 1.328-4.512 5.817M504.857 404.026c-1.537.537-3.489.79-5.313.79-5.408 0-7.392-2.15-7.392-8.093 0-5.944 2.016-8.062 7.392-8.062 1.408 0 3.488.157 5.024.727l-.35 1.739a52.446 52.446 0 0 0-4.226-.19c-3.68 0-4.992 1.297-4.992 5.786 0 4.521 1.312 5.817 4.992 5.817.96 0 3.008-.063 4.61-.316l.255 1.802M515.32 391.253v13.184h-2.72v-13.184h-5.665v-2.213h14.017v2.213h-5.632M526.199 398.05c.288 3.668 1.696 4.49 4.897 4.49 1.696 0 3.84-.158 5.44-.379l.256 1.802c-1.44.6-4.256.854-6.05.854-5.343 0-7.423-2.214-7.423-8.126 0-6.038 2.144-8.03 7.137-8.03 4.704 0 6.688 1.707 6.72 5.027 0 2.75-1.12 4.362-3.712 4.362zm6.561-2.086c1.376 0 1.696-1.138 1.664-2.276 0-1.96-1.024-2.75-3.84-2.75-3.233 0-4.353 1.137-4.417 5.026h6.593M552.568 404.437v-10.212c0-.664.064-1.296.096-2.055h-.064c-.256.6-.704 1.296-1.088 1.802l-7.937 10.465h-2.24V389.04h2.464v10.212c0 .696-.032 1.297-.096 2.055h.064c.32-.632.736-1.296 1.121-1.77l7.936-10.497h2.208v15.397zm.288-22.226c.16 2.466-1.696 4.331-4.77 4.331-3.103 0-4.991-1.865-4.831-4.33h2.081c0 1.833.992 2.844 2.75 2.844 1.698 0 2.69-1.011 2.69-2.845h2.08" fill="#131212"/><path d="M272.323 153.325l-8.39 32.339H237.76l33.389-116.136c1.007-4.467 4.697-7.147 8.892-7.147h24.161c4.363 0 7.886 2.68 8.892 7.147l33.39 116.136h-26.007l-8.39-32.339zm24.496-58.784c-.839-3.752-1.846-7.861-2.35-11.613h-4.529c-.839 3.752-1.679 7.861-2.517 11.613l-9.732 37.7h28.86l-9.732-37.7M401.852 112.41c31.88 0 42.787 8.931 42.787 37.52 0 32.34-14.262 37.342-42.954 37.342-15.101 0-28.188-.357-42.449-1.608h-.672V62.381c13.423-.893 26.679-1.25 39.43-1.25 13.59 0 26.51.536 39.43 1.25l-2.015 20.904h-51.173v29.124zm0 53.958c14.263 0 17.115-3.217 17.115-17.51 0-13.758-2.684-17.867-17.115-17.867h-17.616v35.377h17.616M554.537 185.664h-25.67v-55.03h-40.772v55.03H462.59V62.381h25.504v47.17h40.772V62.38h25.67v123.283" fill="#808e26"/></svg>