<svg xmlns="http://www.w3.org/2000/svg" height="661.933" width="2933.333"><g style="-inkscape-font-specification:MyriadPro-Regular" aria-label="мир криптовалют" font-weight="400" font-size="85" font-family="Myriad Pro" fill="#231f20"><path d="M1837.64 94.86h9.18l1.36-25.953c.34-6.007.68-13.26.907-19.72h.453c1.36 5.1 3.74 13.033 5.44 18.246l9.747 27.087h7.253l10.54-27.653c3.06-8.387 4.533-12.807 6.007-17.794h.34c.226 6.687.68 13.714 1.02 19.607l1.246 26.18h9.52l-3.853-54.853h-12.353l-8.84 23.913c-2.154 6.007-5.214 14.733-6.46 18.813h-.227c-1.247-4.306-3.627-10.993-4.987-15.073l-9.973-27.653h-12.24zM1913.347 40.007V94.86h11.446c5.894-9.633 11.9-20.173 17.114-28.673 3.173-5.554 5.553-9.974 9.066-17h.34c-.453 8.84-.68 13.486-.68 22.44V94.86h9.52V40.007h-11.673l-17.113 28.333c-3.627 6.347-5.554 10.2-8.84 16.887l-.34-.114c.453-7.82.566-13.26.566-21.986v-23.12zM1976.36 117.3h9.86V87.493h.227c3.286 5.44 9.633 8.614 16.886 8.614 12.92 0 24.934-9.747 24.934-29.467 0-16.66-9.974-27.88-23.234-27.88-8.953 0-15.413 3.967-19.493 10.653h-.227l-.453-9.406h-8.953c.226 5.213.453 10.88.453 17.906zm9.86-54.173c0-1.36.34-2.834.68-4.08 1.927-7.48 8.273-12.354 15.073-12.354 10.54 0 16.32 9.407 16.32 20.4 0 12.58-6.12 21.194-16.66 21.194-7.14 0-13.146-4.76-14.96-11.674-.226-1.246-.453-2.606-.453-4.08zM2064.873 40.007V94.86h9.86V70.72h1.927c9.293 0 14.393 4.08 18.133 12.92 1.7 4.533 3.627 8.84 5.1 11.22h10.427c-2.493-4.42-4.42-9.747-5.893-13.373-4.307-9.86-9.634-15.754-18.474-16.66l23.914-24.82h-12.127l-20.627 23.8h-2.38v-23.8zM2119.158 117.3h9.86V87.493h.227c3.287 5.44 9.633 8.614 16.887 8.614 12.92 0 24.933-9.747 24.933-29.467 0-16.66-9.973-27.88-23.233-27.88-8.954 0-15.414 3.967-19.494 10.653h-.226l-.454-9.406h-8.953c.227 5.213.453 10.88.453 17.906zm9.86-54.173c0-1.36.34-2.834.68-4.08 1.927-7.48 8.274-12.354 15.074-12.354 10.54 0 16.32 9.407 16.32 20.4 0 12.58-6.12 21.194-16.66 21.194-7.14 0-13.147-4.76-14.96-11.674-.227-1.246-.454-2.606-.454-4.08zM2183.416 40.007V94.86h11.447c5.893-9.633 11.9-20.173 17.113-28.673 3.173-5.554 5.553-9.974 9.067-17h.34c-.454 8.84-.68 13.486-.68 22.44V94.86h9.52V40.007h-11.674l-17.113 28.333c-3.627 6.347-5.553 10.2-8.84 16.887l-.34-.114c.453-7.82.567-13.26.567-21.986v-23.12zM2246.201 40.007V94.86h9.86V47.94h25.5v46.92h9.973V40.007zM2300.374 40.007v7.933h17.113v46.92h9.86V47.94h17.114v-7.933zM2374.948 38.76c-15.187 0-27.2 10.767-27.2 29.127 0 17.34 11.447 28.22 26.293 28.22 13.26 0 27.314-8.84 27.314-29.127 0-16.773-10.654-28.22-26.407-28.22zm-.227 7.48c11.787 0 16.434 11.787 16.434 21.08 0 12.353-7.14 21.307-16.66 21.307-9.747 0-16.66-9.067-16.66-21.08 0-10.427 5.1-21.307 16.886-21.307zM2413.708 94.86c2.947.227 9.293.68 15.413.68 10.767 0 28.9-1.813 28.9-16.207 0-7.933-5.893-12.466-13.94-13.6v-.226c6.234-1.36 11.447-5.554 11.447-12.354 0-12.24-15.187-13.713-24.367-13.713-6.46 0-13.6.567-17.453 1.247zm9.52-48.053c2.38-.227 4.42-.454 7.707-.454 9.973 0 14.733 2.607 14.733 8.047 0 6.46-7.593 8.613-14.96 8.613h-7.48zm-.113 22.78h7.253c9.52 0 17.453 1.7 17.453 9.633 0 7.933-9.973 9.52-16.66 9.52-3.173 0-5.213-.113-8.046-.453zM2510.041 94.86c-.68-3.74-.906-8.387-.906-13.147V61.2c0-10.993-4.08-22.44-20.854-22.44-6.913 0-13.486 1.927-18.02 4.873l2.267 6.574c3.853-2.494 9.18-4.08 14.28-4.08 11.22 0 12.467 8.16 12.467 12.693v1.133c-21.194-.113-32.98 7.14-32.98 20.4 0 7.934 5.666 15.754 16.773 15.754 7.82 0 13.713-3.854 16.773-8.16h.34l.794 6.913zm-10.54-18.473c0 1.02-.226 2.153-.566 3.173-1.587 4.647-6.12 9.18-13.26 9.18-5.1 0-9.407-3.06-9.407-9.52 0-10.653 12.353-12.58 23.233-12.353zM2528.967 40.007v22.1c0 12.24-.566 19.946-5.666 23.686-1.36 1.134-3.514 1.927-5.44 2.267l1.02 7.82c5.1 0 8.16-1.247 10.88-3.4 7.14-4.647 8.613-14.96 8.613-30.373v-14.28h18.813V94.86h9.86V40.007zM2583.14 40.007V94.86h9.746V70.72h9.18c1.133 15.64 10.767 25.387 23.913 25.387 13.827 0 24.707-11.334 24.707-29.127 0-16.887-9.747-28.22-24.027-28.22-13.146 0-22.666 9.86-24.366 24.367h-9.407v-23.12zm42.953 48.733c-9.634 0-14.507-10.313-14.507-20.967 0-11.106 5.1-21.533 14.733-21.533 9.747 0 14.394 10.653 14.394 20.967 0 10.426-4.534 21.533-14.62 21.533zM2655.331 40.007v7.933h17.114v46.92h9.86V47.94h17.113v-7.933z"/></g><g style="-inkscape-font-specification:Impact"><path d="M468.815 259.464h-98.671v-71.382q0-31.134-3.282-38.728-3.047-7.847-13.828-7.847-12.187 0-15.469 9.366-3.28 9.366-3.28 40.5v190.35q0 29.869 3.28 38.981 3.282 9.113 14.766 9.113 11.016 0 14.297-9.113 3.516-9.112 3.516-42.778v-51.384h98.671v15.947q0 63.534-8.437 90.112-8.203 26.578-36.797 46.575-28.36 19.997-70.078 19.997-43.36 0-71.484-16.96-28.125-16.959-37.266-46.828-9.14-30.121-9.14-90.365V225.292q0-44.297 2.812-66.32 2.812-22.274 16.64-42.777 14.063-20.503 38.672-32.147Q318.581 72.15 350.69 72.15q43.594 0 71.954 18.225 28.359 18.225 37.265 45.563 8.906 27.084 8.906 84.543z" aria-label="C" font-weight="400" font-size="388.8" font-family="Impact" fill="#f28e12"/></g><g style="-inkscape-font-specification:Impact" aria-label="oinForce.ru" font-weight="400" font-size="388.8" font-family="Impact" fill="#343131"><path d="M715.612 272.626v82.266q0 45.309-4.218 66.572-4.22 21.009-18.047 39.487-13.828 18.225-35.625 27.084-21.563 8.607-49.688 8.607-31.406 0-53.203-7.341-21.797-7.594-33.984-22.528-11.953-15.188-17.11-36.45-5.156-21.516-5.156-64.294v-86.062q0-46.828 9.375-73.153 9.375-26.325 33.75-42.272t62.344-15.947q31.875 0 54.61 10.378 22.968 10.125 35.39 26.578t16.875 33.919q4.687 17.465 4.687 53.156zm-94.687-25.312q0-25.82-2.578-32.4-2.578-6.835-11.016-6.835-8.437 0-11.25 6.835-2.812 6.58-2.812 32.4v151.621q0 23.794 2.812 31.135 2.813 7.087 11.016 7.087 8.437 0 11.015-6.581 2.813-6.581 2.813-28.35zM844.174 80.757v53.41h-97.5v-53.41zm0 73.913v335.897h-97.5V154.67zM974.522 154.67l-1.64 30.881q10.312-18.478 25.077-27.59 15-9.366 34.453-9.366 24.375 0 39.844 12.403 15.469 12.403 19.922 31.387 4.453 18.732 4.453 62.775v235.407h-94.687V257.945q0-34.678-2.11-42.272-2.11-7.594-11.718-7.594-10.079 0-12.657 8.86-2.578 8.606-2.578 46.575v227.053h-94.687V154.67zM1132.046 80.757h167.11v82.013h-68.438v77.71h60.938v77.962h-60.938v172.125h-98.672zM1534.492 272.626v82.266q0 45.309-4.218 66.572-4.22 21.009-18.047 39.487-13.828 18.225-35.625 27.084-21.563 8.607-49.688 8.607-31.406 0-53.203-7.341-21.797-7.594-33.984-22.528-11.953-15.188-17.11-36.45-5.156-21.516-5.156-64.294v-86.062q0-46.828 9.375-73.153 9.375-26.325 33.75-42.272t62.344-15.947q31.875 0 54.61 10.378 22.968 10.125 35.39 26.578t16.875 33.919q4.687 17.465 4.687 53.156zm-94.687-25.312q0-25.82-2.578-32.4-2.578-6.835-11.016-6.835-8.437 0-11.25 6.835-2.812 6.58-2.812 32.4v151.621q0 23.794 2.812 31.135 2.813 7.087 11.016 7.087 8.437 0 11.015-6.581 2.813-6.581 2.813-28.35zM1660.241 154.67l-3.75 44.044q20.625-47.335 59.766-50.12v118.21q-26.016 0-38.203 7.594-12.188 7.594-15 21.262-2.813 13.416-2.813 62.27v132.637h-94.687V154.67zM1946.69 281.485h-89.296v-38.728q0-20.25-3.047-27.337-3.047-7.34-11.25-7.34t-11.016 6.327q-2.812 6.328-2.812 28.35v158.457q0 17.971 4.218 27.084 4.22 8.86 12.422 8.86 9.61 0 12.891-9.366 3.516-9.366 3.516-35.438V352.36h84.375q-.235 40.247-2.813 60.497-2.344 19.997-15.703 41.26-13.125 21.009-34.453 31.893-21.328 10.632-52.735 10.632-40.078 0-63.515-14.682-23.438-14.934-33.281-41.512-9.61-26.831-9.61-75.938v-95.428q0-42.778 7.969-64.547 7.969-21.768 33.984-38.728 26.016-17.212 63.282-17.212 37.03 0 63.28 16.96 26.25 16.959 34.923 42.777 8.672 25.82 8.672 73.153zM2189.447 328.567h-122.578v72.647q0 22.78 3.047 29.362 3.046 6.581 11.718 6.581 10.782 0 14.297-8.606 3.75-8.86 3.75-33.919v-44.297h89.766v24.807q0 31.134-3.75 47.84-3.516 16.707-16.875 35.69-13.36 18.985-33.985 28.604-20.39 9.366-51.328 9.366-30 0-52.968-9.366-22.97-9.366-35.86-25.566-12.656-16.453-17.578-35.943-4.922-19.744-4.922-57.207v-97.959q0-44.044 11.016-69.356 11.015-25.566 36.094-38.981 25.078-13.67 57.656-13.67 39.844 0 65.625 16.454 26.015 16.2 36.328 43.284 10.547 26.832 10.547 75.685zm-94.922-54.675v-24.553q0-26.072-2.578-33.666-2.578-7.594-10.547-7.594-9.844 0-12.188 6.581-2.343 6.329-2.343 34.679v24.553zM2283.32 407.035v83.532h-71.484v-83.532zM2403.761 154.67l-3.75 44.044q20.625-47.335 59.766-50.12v118.21q-26.016 0-38.203 7.594-12.188 7.594-15 21.262-2.813 13.416-2.813 62.27v132.637h-94.687V154.67zM2697.71 154.67v335.897h-96.327l1.64-27.844q-9.843 16.96-24.375 25.566-14.297 8.353-33.047 8.353-21.328 0-35.39-8.1-14.063-8.1-20.86-21.516-6.562-13.416-8.203-27.844-1.64-14.681-1.64-57.965V154.67h94.687v228.572q0 39.234 2.11 46.575 2.343 7.34 12.187 7.34 10.547 0 12.422-7.593 2.11-7.594 2.11-48.854V154.67z"/></g></svg>