<svg xmlns="http://www.w3.org/2000/svg" height="572.16" width="2933.333"><g font-weight="400" fill="#231f20"><g style="-inkscape-font-specification:MyriadPro-Regular" aria-label="Crypto Advertising Network" font-size="75" font-family="Myriad Pro"><path d="M1659.22 526.168c-3.5 1.7-8.9 2.8-14.2 2.8-16.4 0-25.9-10.6-25.9-27.1 0-17.7 10.5-27.8 26.3-27.8 5.6 0 10.3 1.2 13.6 2.8l2.1-7.1c-2.3-1.2-7.6-3-16-3-20.9 0-35.2 14.3-35.2 35.4 0 22.1 14.3 34.1 33.3 34.1 8.2 0 14.6-1.6 17.8-3.2zM1671.32 535.268h8.7v-25.8c0-1.5.2-2.9.4-4.1 1.2-6.6 5.6-11.3 11.8-11.3 1.2 0 2.1.1 3 .3v-8.3c-.8-.2-1.5-.3-2.5-.3-5.9 0-11.2 4.1-13.4 10.6h-.4l-.3-9.5h-7.7c.3 4.5.4 9.4.4 15.1zM1700.118 486.868l17.9 44.6c.4 1.1.6 1.8.6 2.3 0 .5-.3 1.2-.7 2.1-2 4.5-5 7.9-7.4 9.8-2.6 2.2-5.5 3.6-7.7 4.3l2.2 7.4c2.2-.4 6.5-1.9 10.8-5.7 6-5.2 10.3-13.7 16.6-30.3l13.2-34.5h-9.3l-9.6 28.4c-1.2 3.5-2.2 7.2-3.1 10.1h-.2c-.8-2.9-2-6.7-3.1-9.9l-10.6-28.6zM1753.617 555.068h8.7v-26.3h.2c2.9 4.8 8.5 7.6 14.9 7.6 11.4 0 22-8.6 22-26 0-14.7-8.8-24.6-20.5-24.6-7.9 0-13.6 3.5-17.2 9.4h-.2l-.4-8.3h-7.9c.2 4.6.4 9.6.4 15.8zm8.7-47.8c0-1.2.3-2.5.6-3.6 1.7-6.6 7.3-10.9 13.3-10.9 9.3 0 14.4 8.3 14.4 18 0 11.1-5.4 18.7-14.7 18.7-6.3 0-11.6-4.2-13.2-10.3-.2-1.1-.4-2.3-.4-3.6zM1812.516 475.268v11.6h-7.5v6.7h7.5v26.4c0 5.7.9 10 3.4 12.6 2.1 2.4 5.4 3.7 9.5 3.7 3.4 0 6.1-.5 7.8-1.2l-.4-6.6c-1.1.3-2.8.6-5.1.6-4.9 0-6.6-3.4-6.6-9.4v-26.1h12.6v-6.7h-12.6v-13.9zM1863.514 485.768c-13.4 0-24 9.5-24 25.7 0 15.3 10.1 24.9 23.2 24.9 11.7 0 24.1-7.8 24.1-25.7 0-14.8-9.4-24.9-23.3-24.9zm-.2 6.6c10.4 0 14.5 10.4 14.5 18.6 0 10.9-6.3 18.8-14.7 18.8-8.6 0-14.7-8-14.7-18.6 0-9.2 4.5-18.8 14.9-18.8zM1954.214 514.068l7.2 21.2h9.3l-23-67.4h-10.5l-22.9 67.4h9l7-21.2zm-22.1-6.8l6.6-19.5c1.3-4.1 2.4-8.2 3.4-12.2h.2c1 3.9 2 7.9 3.5 12.3l6.6 19.4zM2012.115 464.268v28.9h-.2c-2.2-3.9-7.2-7.4-14.6-7.4-11.8 0-21.8 9.9-21.7 26 0 14.7 9 24.6 20.7 24.6 7.9 0 13.8-4.1 16.5-9.5h.2l.4 8.4h7.9c-.3-3.3-.4-8.2-.4-12.5v-58.5zm0 50.7c0 1.4-.1 2.6-.4 3.8-1.6 6.6-7 10.5-12.9 10.5-9.5 0-14.3-8.1-14.3-17.9 0-10.7 5.4-18.7 14.5-18.7 6.6 0 11.4 4.6 12.7 10.2.3 1.1.4 2.6.4 3.7zM2029.515 486.868l18.4 48.4h8.4l19-48.4h-9.2l-9.4 27.2c-1.6 4.4-3 8.4-4.1 12.4h-.3c-1-4-2.3-8-3.9-12.4l-9.5-27.2zM2121.515 512.668c.1-.9.3-2.3.3-4.1 0-8.9-4.2-22.8-20-22.8-14.1 0-22.7 11.5-22.7 26.1 0 14.6 8.9 24.4 23.8 24.4 7.7 0 13-1.6 16.1-3l-1.5-6.3c-3.3 1.4-7.1 2.5-13.4 2.5-8.8 0-16.4-4.9-16.6-16.8zm-33.9-6.3c.7-6.1 4.6-14.3 13.5-14.3 9.9 0 12.3 8.7 12.2 14.3zM2132.714 535.268h8.7v-25.8c0-1.5.2-2.9.4-4.1 1.2-6.6 5.6-11.3 11.8-11.3 1.2 0 2.1.1 3 .3v-8.3c-.8-.2-1.5-.3-2.5-.3-5.9 0-11.2 4.1-13.4 10.6h-.4l-.3-9.5h-7.7c.3 4.5.4 9.4.4 15.1zM2169.812 475.268v11.6h-7.5v6.7h7.5v26.4c0 5.7.9 10 3.4 12.6 2.1 2.4 5.4 3.7 9.5 3.7 3.4 0 6.1-.5 7.8-1.2l-.4-6.6c-1.1.3-2.8.6-5.1.6-4.9 0-6.6-3.4-6.6-9.4v-26.1h12.6v-6.7h-12.6v-13.9zM2209.71 535.268v-48.4h-8.8v48.4zm-4.4-67.5c-3.2 0-5.5 2.4-5.5 5.5 0 3 2.2 5.4 5.3 5.4 3.5 0 5.7-2.4 5.6-5.4 0-3.1-2.1-5.5-5.4-5.5zM2220.91 532.968c3.4 2 8.3 3.3 13.6 3.3 11.5 0 18.1-6 18.1-14.5 0-7.2-4.3-11.4-12.7-14.6-6.3-2.4-9.2-4.2-9.2-8.2 0-3.6 2.9-6.6 8.1-6.6 4.5 0 8 1.6 9.9 2.8l2.2-6.4c-2.7-1.6-7-3-11.9-3-10.4 0-16.7 6.4-16.7 14.2 0 5.8 4.1 10.6 12.8 13.7 6.5 2.4 9 4.7 9 8.9 0 4-3 7.2-9.4 7.2-4.4 0-9-1.8-11.6-3.5zM2272.71 535.268v-48.4h-8.8v48.4zm-4.4-67.5c-3.2 0-5.5 2.4-5.5 5.5 0 3 2.2 5.4 5.3 5.4 3.5 0 5.7-2.4 5.6-5.4 0-3.1-2.1-5.5-5.4-5.5zM2287.31 535.268h8.8v-29.1c0-1.5.2-3 .6-4.1 1.5-4.9 6-9 11.8-9 8.3 0 11.2 6.5 11.2 14.3v27.9h8.8v-28.9c0-16.6-10.4-20.6-17.1-20.6-8 0-13.6 4.5-16 9.1h-.2l-.5-8h-7.8c.3 4 .4 8.1.4 13.1zM2376.808 486.868l-.4 7.3h-.2c-2.1-4-6.7-8.4-15.1-8.4-11.1 0-21.8 9.3-21.8 25.7 0 13.4 8.6 23.6 20.6 23.6 7.5 0 12.7-3.6 15.4-8.1h.2v5.4c0 12.2-6.6 16.9-15.6 16.9-6 0-11-1.8-14.2-3.8l-2.2 6.7c3.9 2.6 10.3 4 16.1 4 6.1 0 12.9-1.4 17.6-5.8 4.7-4.2 6.9-11 6.9-22.1v-28.1c0-5.9.2-9.8.4-13.3zm-1.4 27.8c0 1.5-.2 3.2-.7 4.7-1.9 5.6-6.8 9-12.2 9-9.5 0-14.3-7.9-14.3-17.4 0-11.2 6-18.3 14.4-18.3 6.4 0 10.7 4.2 12.3 9.3.4 1.2.5 2.5.5 4zM2428.406 535.268v-28.8c0-11.2-.2-19.3-.7-27.8l.3-.1c3.4 7.3 7.9 15 12.6 22.5l21.4 34.2h8.8v-67.4h-8.2v28.2c0 10.5.2 18.7 1 27.7l-.2.1c-3.2-6.9-7.1-14-12.1-21.9l-21.6-34.1h-9.5v67.4zM2524.606 512.668c.1-.9.3-2.3.3-4.1 0-8.9-4.2-22.8-20-22.8-14.1 0-22.7 11.5-22.7 26.1 0 14.6 8.9 24.4 23.8 24.4 7.7 0 13-1.6 16.1-3l-1.5-6.3c-3.3 1.4-7.1 2.5-13.4 2.5-8.8 0-16.4-4.9-16.6-16.8zm-33.9-6.3c.7-6.1 4.6-14.3 13.5-14.3 9.9 0 12.3 8.7 12.2 14.3zM2537.805 475.268v11.6h-7.5v6.7h7.5v26.4c0 5.7.9 10 3.4 12.6 2.1 2.4 5.4 3.7 9.5 3.7 3.4 0 6.1-.5 7.8-1.2l-.4-6.6c-1.1.3-2.8.6-5.1.6-4.9 0-6.6-3.4-6.6-9.4v-26.1h12.6v-6.7h-12.6v-13.9zM2564.302 486.868l14.6 48.4h8l7.8-23c1.7-5.2 3.2-10.2 4.4-16h.2c1.2 5.7 2.6 10.5 4.3 15.9l7.4 23.1h8l15.6-48.4h-8.7l-6.9 24.3c-1.6 5.7-2.9 10.8-3.7 15.7h-.3c-1.1-4.9-2.5-10-4.3-15.8l-7.5-24.2h-7.4l-7.9 24.7c-1.6 5.2-3.2 10.4-4.3 15.3h-.3c-.9-5-2.2-10-3.6-15.4l-6.4-24.6zM2662.9 485.768c-13.4 0-24 9.5-24 25.7 0 15.3 10.1 24.9 23.2 24.9 11.7 0 24.1-7.8 24.1-25.7 0-14.8-9.4-24.9-23.3-24.9zm-.2 6.6c10.4 0 14.5 10.4 14.5 18.6 0 10.9-6.3 18.8-14.7 18.8-8.6 0-14.7-8-14.7-18.6 0-9.2 4.5-18.8 14.9-18.8zM2697.3 535.268h8.7v-25.8c0-1.5.2-2.9.4-4.1 1.2-6.6 5.6-11.3 11.8-11.3 1.2 0 2.1.1 3 .3v-8.3c-.8-.2-1.5-.3-2.5-.3-5.9 0-11.2 4.1-13.4 10.6h-.4l-.3-9.5h-7.7c.3 4.5.4 9.4.4 15.1zM2739.101 464.268h-8.7v71h8.7v-18.2l4.5-5 16.7 23.2h10.7l-21.3-28.5 18.7-19.9h-10.6l-14.2 16.7c-1.4 1.7-3.1 3.8-4.3 5.5h-.2z"/></g><g style="-inkscape-font-specification:Impact" aria-label="CoinAd." font-size="350" font-family="Impact"><path d="M390.691 209.855h-95.93v-64.258q0-28.028-3.19-34.864-2.963-7.063-13.445-7.063-11.849 0-15.039 8.43-3.19 8.432-3.19 36.459v171.354q0 26.888 3.19 35.091t14.356 8.203q10.71 0 13.9-8.203 3.418-8.203 3.418-38.509V270.24h95.93v14.355q0 57.194-8.203 81.12-7.975 23.926-35.774 41.927-27.572 18.001-68.132 18.001-42.155 0-69.499-15.267-27.343-15.267-36.23-42.155-8.887-27.115-8.887-81.347v-107.78q0-39.876 2.735-59.7 2.734-20.053 16.178-38.51 13.672-18.457 37.598-28.939 24.153-10.71 55.37-10.71 42.384 0 69.955 16.407 27.572 16.406 36.23 41.016 8.66 24.381 8.66 76.106zM630.768 221.704v74.056q0 40.787-4.102 59.928-4.101 18.913-17.545 35.547-13.444 16.406-34.636 24.381-20.963 7.748-48.307 7.748-30.534 0-51.725-6.608-21.192-6.836-33.04-20.28-11.622-13.672-16.635-32.813-5.013-19.368-5.013-57.877v-77.474q0-42.155 9.115-65.853 9.114-23.698 32.812-38.054 23.698-14.355 60.612-14.355 30.99 0 53.093 9.342 22.33 9.115 34.407 23.926 12.077 14.811 16.406 30.534 4.558 15.723 4.558 47.852zm-92.058-22.787q0-23.242-2.506-29.167-2.507-6.152-10.71-6.152-8.203 0-10.937 6.152-2.735 5.925-2.735 29.167v136.491q0 21.42 2.735 28.027 2.734 6.38 10.71 6.38 8.203 0 10.71-5.924 2.733-5.924 2.733-25.52zM755.758 48.982v48.08h-94.792v-48.08zm0 66.537v302.376h-94.792V115.519zM882.485 115.519l-1.595 27.8q10.026-16.635 24.382-24.838 14.583-8.431 33.496-8.431 23.698 0 38.737 11.165 15.039 11.166 19.368 28.255 4.33 16.862 4.33 56.51v211.915h-92.058V208.487q0-31.217-2.05-38.053-2.051-6.836-11.394-6.836-9.798 0-12.304 7.975-2.507 7.748-2.507 41.927v204.395h-92.057V115.519zM1201.292 48.982l54.915 368.913h-98.21l-4.785-66.309h-34.407l-5.697 66.309h-99.35l48.764-368.913zm-50.814 237.207q-7.292-62.663-14.584-154.72-14.583 105.73-18.229 154.72zM1479.374 48.982v368.913h-92.058V396.02q-13.216 13.672-27.799 20.508-14.583 6.836-30.534 6.836-21.42 0-37.142-11.166-15.722-11.393-20.28-26.204-4.33-14.811-4.33-48.307V196.183q0-34.864 4.33-49.447 4.558-14.583 20.508-25.52 15.95-11.166 38.053-11.166 17.09 0 31.218 6.152 14.355 6.153 25.976 18.457V48.982zm-92.058 142.643q0-16.634-2.962-22.33-2.734-5.697-11.165-5.697-8.203 0-11.165 5.241-2.735 5.013-2.735 22.786v148.112q0 18.457 2.735 24.382 2.734 5.697 10.481 5.697 8.887 0 11.85-6.38 2.961-6.609 2.961-31.902zM1573.928 342.7v75.195h-69.498V342.7z"/></g></g><g style="-inkscape-font-specification:Impact" aria-label="media" font-weight="400" font-size="350" font-family="Impact" fill="#1b64a3"><path d="M1689.284 115.518l-1.595 28.711q10.71-17.09 25.521-25.52 14.811-8.66 33.724-8.66 36.914 0 58.105 34.18 11.621-17.09 26.205-25.52 14.583-8.66 32.357-8.66 23.47 0 38.737 11.394 15.494 11.393 19.824 28.027 4.33 16.406 4.33 53.548v214.877h-89.324V220.792q0-38.737-2.734-47.852-2.507-9.342-12.077-9.342-9.798 0-12.76 9.114-2.735 9.115-2.735 48.08v197.103h-89.323v-192.09q0-44.434-2.278-53.32-2.051-8.887-11.85-8.887-6.152 0-10.481 4.785-4.33 4.557-4.785 11.393-.456 6.608-.456 28.483v209.636h-89.323V115.518zM2166.662 272.061H2047.49v65.397q0 20.508 2.962 26.433 2.963 5.924 11.394 5.924 10.481 0 13.9-7.747 3.645-7.975 3.645-30.534v-39.876h87.272v22.33q0 28.028-3.646 43.067-3.418 15.039-16.406 32.129-12.988 17.09-33.04 25.748-19.824 8.431-49.902 8.431-29.167 0-51.498-8.43-22.33-8.432-34.863-23.015-12.305-14.811-17.09-32.357-4.785-17.773-4.785-51.497V219.88q0-39.648 10.71-62.435 10.71-23.014 35.09-35.09 24.382-12.305 56.055-12.305 38.737 0 63.802 14.81 25.293 14.584 35.32 38.966 10.253 24.153 10.253 68.131zm-92.285-49.218V200.74q0-23.47-2.506-30.306-2.507-6.836-10.254-6.836-9.57 0-11.85 5.924-2.278 5.697-2.278 31.218v22.103zM2406.04 48.982v368.913h-92.057V396.02q-13.216 13.672-27.8 20.507-14.583 6.836-30.533 6.836-21.42 0-37.142-11.165-15.723-11.393-20.28-26.204-4.33-14.812-4.33-48.308V196.182q0-34.863 4.33-49.446 4.557-14.584 20.508-25.521 15.95-11.165 38.053-11.165 17.09 0 31.218 6.152 14.355 6.152 25.976 18.457V48.982zm-92.057 142.643q0-16.634-2.962-22.33-2.734-5.697-11.165-5.697-8.204 0-11.166 5.24-2.734 5.014-2.734 22.787v148.112q0 18.457 2.734 24.382 2.735 5.696 10.482 5.696 8.887 0 11.849-6.38 2.962-6.608 2.962-31.901zM2534.091 48.982v48.08H2439.3v-48.08zm0 66.536v302.377H2439.3V115.518zM2649.425 232.64h-86.36v-20.28q0-35.09 7.975-54.003 8.203-19.14 32.584-33.724 24.382-14.583 63.347-14.583 46.712 0 70.41 16.634 23.698 16.406 28.483 40.56 4.785 23.925 4.785 98.893v151.758h-89.55v-26.888q-8.432 16.178-21.876 24.381-13.216 7.975-31.673 7.975-24.153 0-44.433-13.444-20.052-13.671-20.052-59.472V325.61q0-33.952 10.71-46.257 10.709-12.305 53.092-28.71 45.345-17.774 48.535-23.927 3.19-6.152 3.19-25.065 0-23.698-3.646-30.762-3.418-7.291-11.621-7.291-9.342 0-11.621 6.152-2.279 5.925-2.279 31.218zm29.167 41.472q-22.103 16.179-25.749 27.116-3.418 10.938-3.418 31.445 0 23.47 2.963 30.306 3.19 6.836 12.304 6.836 8.659 0 11.166-5.24 2.734-5.47 2.734-28.256z"/></g></svg>