<svg xmlns="http://www.w3.org/2000/svg" height="487.293" width="2933.333"><g style="-inkscape-font-specification:Phosphate-Solid"><path d="M96.617 220.213q0-21.12 7.04-39.6 7.48-18.48 20.68-32.12 13.2-13.64 32.12-21.56 18.92-7.92 42.24-7.92 11.44 0 20.24 1.76 9.24 1.32 15.4 3.52 7.48 2.2 12.76 5.28l6.16-10.56q-7.04-3.08-14.96-5.72-7.48-2.2-17.16-3.96-9.68-1.76-22.44-1.76-22.44 0-43.12 7.92-20.24 7.92-36.08 22.88-15.4 14.52-25.08 35.64-9.24 20.68-9.24 46.2 0 25.96 8.8 46.64 9.24 20.68 25.08 35.64 15.84 14.52 36.96 22.44 21.12 7.92 44.88 7.92 13.2 0 23.76-2.2 10.56-2.2 18.04-4.84 8.36-3.08 14.96-7.04l-6.16-10.56q-5.72 3.96-13.2 6.6-6.6 2.64-15.84 4.84-9.24 1.76-21.56 1.76-24.2 0-43.56-7.92-19.36-7.92-33-21.56-13.2-13.64-20.68-32.12-7.04-18.48-7.04-39.6zm-55.44 0q0-35.2 12.32-63.36 12.32-28.6 33.44-48.84 21.12-20.24 49.28-30.8 28.16-11 59.84-11 25.08 0 44.44 4.84 19.8 4.84 33.88 11 16.28 7.04 28.16 15.4l-46.2 81.4q-7.04-5.28-15.4-10.12-7.48-3.52-18.04-6.6-10.12-3.52-23.32-3.52-13.64 0-25.08 4.84-11.44 4.84-20.24 13.2-8.36 8.36-13.2 19.8-4.84 11-4.84 23.76 0 12.76 4.84 24.2 5.28 11 14.08 19.36t20.68 13.2q11.88 4.84 25.96 4.84t25.08-3.52q11-3.52 18.48-7.92 8.8-4.84 15.4-11.44l46.2 81.4q-11.88 9.68-28.16 17.16-14.08 6.16-33.88 11.44-19.8 5.28-45.32 5.28-34.32 0-63.36-11-29.04-11.44-50.16-31.68-21.12-20.24-33-48.4-11.88-28.6-11.88-62.92z" aria-label="C" font-size="330" font-family="Phosphate" fill="#234f91"/></g><g style="-inkscape-font-specification:Phosphate-Solid" aria-label="OIN" font-size="231" font-family="Phosphate" fill="#1f1d1e"><path d="M308.696 264.17q0-22.177 8.316-41.889 8.624-19.712 23.1-34.188 14.784-14.784 34.496-23.1 19.712-8.624 41.888-8.624t41.888 8.624q19.712 8.316 34.188 23.1 14.784 14.476 23.1 34.188 8.624 19.712 8.624 41.888t-8.624 41.888q-8.316 19.712-23.1 34.496-14.476 14.476-34.188 23.1-19.712 8.316-41.888 8.316t-41.888-8.316q-19.712-8.624-34.496-23.1-14.476-14.784-23.1-34.496-8.316-19.712-8.316-41.888zm28.952 0q0 16.323 6.16 30.8 6.16 14.167 16.94 24.947 10.78 10.78 24.948 16.94 14.476 6.16 30.8 6.16 16.324 0 30.492-6.16 14.476-6.16 25.256-16.94 10.78-10.78 16.94-24.948 6.16-14.476 6.16-30.8 0-16.324-6.16-30.492-6.16-14.476-16.94-25.256-10.78-10.78-25.256-16.94-14.168-6.16-30.492-6.16t-30.8 6.16q-14.168 6.16-24.948 16.94-10.78 10.78-16.94 25.256-6.16 14.168-6.16 30.492zm35.728 0q0 8.931 3.388 16.94 3.388 7.7 9.24 13.551 5.852 5.852 13.552 9.24 8.008 3.388 16.94 3.388 8.932 0 16.632-3.388 8.008-3.388 13.86-9.24t9.24-13.552q3.388-8.008 3.388-16.94 0-8.932-3.388-16.632-3.388-8.008-9.24-13.86t-13.86-9.24q-7.7-3.388-16.632-3.388-8.932 0-16.94 3.388-7.7 3.388-13.552 9.24-5.852 5.852-9.24 13.86-3.388 7.7-3.388 16.632zm43.12 70.84q-14.784 0-27.72-5.545-12.628-5.544-22.484-15.092-9.548-9.856-15.092-22.484-5.544-12.936-5.544-27.72 0-14.784 5.544-27.412 5.544-12.936 15.092-22.484 9.856-9.856 22.484-15.4 12.936-5.544 27.72-5.544 14.784 0 27.412 5.544 12.936 5.544 22.484 15.4 9.856 9.548 15.4 22.484 5.544 12.628 5.544 27.412 0 14.784-5.544 27.72-5.544 12.628-15.4 22.484-9.548 9.548-22.484 15.092-12.628 5.544-27.412 5.544zM541.233 161.297h69.608v205.436h-69.608zm38.808 180.796V185.937h-8.008v156.156zM632.398 161.297h53.9l56.672 79.156v-79.156h64.372v205.436h-54.208l-56.364-78.848v78.848h-64.372zm36.652 180.796V199.797l101.64 142.296h8.008V185.937h-8.008v142.296L669.05 185.937h-8.008v156.156z"/></g><g style="-inkscape-font-specification:Phosphate-Solid"><path d="M882.357 220.213q0-21.12 7.04-39.6 7.48-18.48 20.68-32.12 13.2-13.64 32.12-21.56 18.92-7.92 42.24-7.92 11.44 0 20.24 1.76 9.24 1.32 15.4 3.52 7.48 2.2 12.76 5.28l6.16-10.56q-7.04-3.08-14.96-5.72-7.48-2.2-17.16-3.96-9.68-1.76-22.44-1.76-22.44 0-43.12 7.92-20.24 7.92-36.08 22.88-15.4 14.52-25.08 35.64-9.24 20.68-9.24 46.2 0 25.96 8.8 46.64 9.24 20.68 25.08 35.64 15.84 14.52 36.96 22.44 21.12 7.92 44.88 7.92 13.2 0 23.76-2.2 10.56-2.2 18.04-4.84 8.36-3.08 14.96-7.04l-6.16-10.56q-5.72 3.96-13.2 6.6-6.6 2.64-15.84 4.84-9.24 1.76-21.56 1.76-24.2 0-43.56-7.92-19.36-7.92-33-21.56-13.2-13.64-20.68-32.12-7.04-18.48-7.04-39.6zm-55.44 0q0-35.2 12.32-63.36 12.32-28.6 33.44-48.84 21.12-20.24 49.28-30.8 28.16-11 59.84-11 25.08 0 44.44 4.84 19.8 4.84 33.88 11 16.28 7.04 28.16 15.4l-46.2 81.4q-7.04-5.28-15.4-10.12-7.48-3.52-18.04-6.6-10.12-3.52-23.32-3.52-13.64 0-25.08 4.84-11.44 4.84-20.24 13.2-8.36 8.36-13.2 19.8-4.84 11-4.84 23.76 0 12.76 4.84 24.2 5.28 11 14.08 19.36t20.68 13.2q11.88 4.84 25.96 4.84t25.08-3.52q11-3.52 18.48-7.92 8.8-4.84 15.4-11.44l46.2 81.4q-11.88 9.68-28.16 17.16-14.08 6.16-33.88 11.44-19.8 5.28-45.32 5.28-34.32 0-63.36-11-29.04-11.44-50.16-31.68-21.12-20.24-33-48.4-11.88-28.6-11.88-62.92z" aria-label="C" font-size="330" font-family="Phosphate" fill="#234f91"/></g><g font-family="Phosphate" fill="#1f1d1e"><g style="-inkscape-font-specification:Phosphate-Solid" aria-label="HART" font-size="231"><path d="M1099.057 161.297h65.604v69.916h36.652v-69.916h65.912v205.436h-65.912v-76.076h-36.652v76.076h-65.604zm38.808 180.796V264.17h90.552v77.924h8.008V185.937h-8.008v70.84h-90.552v-70.84h-8.008v156.156zM1349.768 161.297h49.28l77.924 205.436h-64.68l-6.776-18.48H1343.3l-6.776 18.48h-64.68zm38.5 141.68l-13.86-36.036-13.86 36.036zm-70.532 39.116l5.852-15.4h101.64l5.852 15.4h8.624l-59.444-156.156h-11.704l-59.444 156.156zm56.672-148.764l48.048 125.972h-96.096zM1545.653 295.277q12.012 0 23.408-2.464l29.26 49.28h9.548l-30.8-51.744q16.632-5.852 26.488-17.864 9.856-12.32 9.856-31.724 0-13.552-5.236-23.716-5.236-10.164-14.476-16.94-8.932-7.084-21.252-10.472-12.32-3.696-26.796-3.696h-33.264v156.156h8.008v-46.816zm-25.256-7.392V193.33h25.256q28.028 0 43.736 12.32 16.016 12.32 16.016 35.112t-16.016 35.112q-15.708 12.012-43.736 12.012zm-38.808-126.588h70.84q19.712 0 36.344 5.236 16.94 5.236 29.26 15.4 12.32 10.164 19.096 25.256 7.084 14.784 7.084 34.188 0 15.4-4.312 26.18t-9.548 17.864q-6.16 8.008-13.86 13.552l38.5 67.76h-77l-30.8-52.052v52.052h-65.604zm65.604 101.024h3.388q11.704 0 19.712-5.236 8.316-5.236 8.316-17.556t-8.316-17.556q-8.008-5.236-19.712-5.236h-3.388zM1685.176 215.197h-37.884v-53.9h143.528v53.9h-37.884v151.536h-67.76zm37.884 126.896V193.33h44.044v-7.392h-96.096v7.392h44.044v148.764z"/></g><g style="-inkscape-font-specification:Phosphate-Solid"><path d="M1804.013 293.253h94.16v73.48h-94.16zm67.76 41.8v-10.12h-41.36v10.12z" aria-label="." font-size="330"/></g></g><g style="-inkscape-font-specification:Phosphate-Solid" aria-label="ONLINE" font-size="231" font-family="Phosphate" fill="#234f91"><path d="M1917.533 264.17q0-22.177 8.316-41.889 8.624-19.712 23.1-34.188 14.784-14.784 34.496-23.1 19.712-8.624 41.888-8.624t41.888 8.624q19.712 8.316 34.188 23.1 14.784 14.476 23.1 34.188 8.624 19.712 8.624 41.888t-8.624 41.888q-8.316 19.712-23.1 34.496-14.476 14.476-34.188 23.1-19.712 8.316-41.888 8.316t-41.888-8.316q-19.712-8.624-34.496-23.1-14.476-14.784-23.1-34.496-8.316-19.712-8.316-41.888zm28.952 0q0 16.323 6.16 30.8 6.16 14.167 16.94 24.947 10.78 10.78 24.948 16.94 14.476 6.16 30.8 6.16 16.324 0 30.492-6.16 14.476-6.16 25.256-16.94 10.78-10.78 16.94-24.948 6.16-14.476 6.16-30.8 0-16.324-6.16-30.492-6.16-14.476-16.94-25.256-10.78-10.78-25.256-16.94-14.168-6.16-30.492-6.16t-30.8 6.16q-14.168 6.16-24.948 16.94-10.78 10.78-16.94 25.256-6.16 14.168-6.16 30.492zm35.728 0q0 8.931 3.388 16.94 3.388 7.7 9.24 13.551 5.852 5.852 13.552 9.24 8.008 3.388 16.94 3.388 8.932 0 16.632-3.388 8.008-3.388 13.86-9.24t9.24-13.552q3.388-8.008 3.388-16.94 0-8.932-3.388-16.632-3.388-8.008-9.24-13.86t-13.86-9.24q-7.7-3.388-16.632-3.388-8.932 0-16.94 3.388-7.7 3.388-13.552 9.24-5.852 5.852-9.24 13.86-3.388 7.7-3.388 16.632zm43.12 70.84q-14.784 0-27.72-5.545-12.628-5.544-22.484-15.092-9.548-9.856-15.092-22.484-5.544-12.936-5.544-27.72 0-14.784 5.544-27.412 5.544-12.936 15.092-22.484 9.856-9.856 22.484-15.4 12.936-5.544 27.72-5.544 14.784 0 27.412 5.544 12.936 5.544 22.484 15.4 9.856 9.548 15.4 22.484 5.544 12.628 5.544 27.412 0 14.784-5.544 27.72-5.544 12.628-15.4 22.484-9.548 9.548-22.484 15.092-12.628 5.544-27.412 5.544zM2150.07 161.297h53.9l56.673 79.156v-79.156h64.372v205.436h-54.208l-56.364-78.848v78.848h-64.372zm36.653 180.796V199.797l101.64 142.296h8.008V185.937h-8.008v142.296l-101.64-142.296h-8.008v156.156zM2346.57 161.297h68.377v151.536h56.672v53.9H2346.57zm107.8 180.796v-7.392h-68.991V185.937h-8.008v156.156zM2482.397 161.297h69.608v205.436h-69.608zm38.808 180.796V185.937h-8.008v156.156zM2573.563 161.297h53.9l56.672 79.156v-79.156h64.372v205.436h-54.208l-56.364-78.848v78.848h-64.372zm36.652 180.796V199.797l101.64 142.296h8.008V185.937h-8.008v142.296l-101.64-142.296h-8.008v156.156zM2770.063 161.297h121.044v53.9h-55.44v22.792h54.516v51.128h-54.516v23.716h57.596v53.9h-123.2zm100.408 180.796v-7.392h-61.6V267.25h58.52v-7.392h-58.52V193.33h61.6v-7.392h-69.608v156.156z"/></g></svg>