<svg xmlns="http://www.w3.org/2000/svg" height="718.747" width="2531.56"><g style="-inkscape-font-specification:Impact" aria-label="Бло" font-weight="400" font-size="270" font-family="Impact" fill="#231f20"><path d="M822.993 255.75q0 31.817-7.65 45.704t-23.274 17.402q-15.463 3.516-49.48 3.516h-79.264V37.606h134.278v49.395H732.01v48.164h10.58q31.738 0 48.014 4.043 16.276 4.043 24.251 17.93 8.138 13.71 8.138 43.242zm-68.685-8.612v-41.133q0-17.93-3.418-21.797-3.255-3.867-18.88-4.395v93.516q13.02 0 17.578-3.516 4.72-3.691 4.72-22.675zM945.307 322.372V137.977h-23.275v117.774q0 32.168-6.836 46.055-6.836 13.71-21.647 17.226-14.648 3.34-48.177 3.34H834.63v-38.145q12.532-.175 17.252-3.34 4.72-3.34 4.72-23.027V89.11h153.972v233.262zM1181.135 171.024v57.13q0 31.464-2.93 46.23-2.93 14.59-12.532 27.422-9.603 12.656-24.74 18.808-14.974 5.977-34.505 5.977-21.81 0-36.947-5.098-15.136-5.273-23.6-15.644-8.3-10.547-11.881-25.313-3.581-14.941-3.581-44.648v-59.766q0-32.52 6.51-50.8 6.51-18.282 23.438-29.356 16.927-11.074 43.294-11.074 22.136 0 37.923 7.207 15.95 7.03 24.577 18.457 8.626 11.425 11.719 23.554 3.255 12.13 3.255 36.914zm-65.755-17.578q0-17.93-1.79-22.5-1.79-4.746-7.65-4.746t-7.813 4.746q-1.953 4.57-1.953 22.5V258.74q0 16.524 1.953 21.621 1.953 4.922 7.65 4.922 5.86 0 7.65-4.57 1.953-4.57 1.953-19.688z"/></g><g style="-inkscape-font-specification:Impact"><path d="M1323.644 94.56h-50.293v227.812h-68.684V37.606h118.977z" aria-label="Г" font-weight="400" font-size="270" font-family="Impact" fill="#f7b00c"/></g><g font-weight="400" font-family="Impact" fill="#231f20"><g style="-inkscape-font-specification:Impact" aria-label="чейн" font-size="270"><path d="M1489.985 322.372h-65.592v-64.16q-12.37 12.656-39.388 12.656-18.718 0-30.274-7.207-11.556-7.207-14.16-20.918-2.604-13.71-2.604-44.297V89.11h65.755v112.676q0 18.633 1.628 25.137 1.627 6.504 8.626 6.504 5.86 0 8.138-5.801 2.279-5.8 2.279-23.379V89.11h65.592zM1660.72 209.872h-85.123v50.45q0 15.82 2.116 20.39t8.138 4.57q7.487 0 9.928-5.976 2.604-6.153 2.604-23.555v-30.762h62.337v17.227q0 21.62-2.604 33.222-2.441 11.602-11.718 24.786-9.278 13.183-23.6 19.863-14.16 6.504-35.645 6.504-20.834 0-36.784-6.504t-24.902-17.754q-8.79-11.426-12.207-24.961-3.418-13.71-3.418-39.727v-68.027q0-30.586 7.65-48.164 7.65-17.754 25.064-27.07 17.416-9.492 40.04-9.492 27.669 0 45.572 11.425 18.067 11.25 25.228 30.059 7.324 18.633 7.324 52.559zm-65.917-37.969v-17.05q0-18.106-1.79-23.38-1.791-5.273-7.325-5.273-6.836 0-8.464 4.57-1.627 4.395-1.627 24.082v17.051zM1845.129 322.372h-57.292V196.337L1742.1 322.372h-59.896V89.11h57.292v124.98l44.922-124.98h60.71zM1781.815 20.38h27.669q-.977 23.906-13.02 38.496-11.882 14.59-33.204 14.59-21.484 0-33.366-14.59-11.719-14.766-12.695-38.496h27.67q1.952 24.082 18.391 24.082 16.602 0 18.555-24.082zM2022.864 322.372h-65.43v-85.957h-23.6v85.957h-65.267V89.11h65.267v83.848h23.6V89.11h65.43z"/></g><g style="-inkscape-font-specification:Impact" aria-label="технологии" font-size="248.4"><path d="M793.408 394.663v44.958h-34.59v169.643h-60.344V439.621h-34.74v-44.958zM942.549 505.764h-78.314v46.413q0 14.555 1.947 18.76 1.946 4.204 7.487 4.204 6.888 0 9.134-5.498 2.396-5.66 2.396-21.67v-28.301h57.35v15.848q0 19.892-2.396 30.565-2.246 10.674-10.781 22.802-8.535 12.13-21.712 18.275-13.028 5.983-32.793 5.983-19.167 0-33.841-5.983-14.675-5.984-22.91-16.334-8.087-10.512-11.231-22.964-3.145-12.614-3.145-36.548V468.73q0-28.139 7.038-44.31 7.038-16.334 23.06-24.905 16.022-8.733 36.836-8.733 25.456 0 41.927 10.512 16.621 10.35 23.21 27.654 6.738 17.142 6.738 48.354zm-60.645-34.931v-15.687q0-16.657-1.647-21.509-1.647-4.851-6.738-4.851-6.289 0-7.786 4.205-1.498 4.043-1.498 22.155v15.687zM1082.106 394.663l-24.108 102.53 29.2 112.071h-58.848q-8.685-42.37-13.177-72.935-5.99 38.165-13.028 72.935h-50.612l26.055-112.071-26.055-102.53h50.612q12.13 65.658 13.028 74.553 8.685-54.823 13.177-74.553zM1237.237 609.264h-60.196v-79.08h-21.712v79.08h-60.045v-214.6h60.045v77.14h21.712v-77.14h60.196zM1395.662 470.024v52.559q0 28.947-2.696 42.532-2.695 13.422-11.53 25.228-8.834 11.644-22.76 17.304-13.776 5.498-31.745 5.498-20.065 0-33.99-4.69-13.927-4.851-21.713-14.393-7.637-9.703-10.931-23.287-3.294-13.746-3.294-41.077v-54.984q0-29.918 5.99-46.737 5.989-16.818 21.562-27.007 15.573-10.188 39.83-10.188 20.365 0 34.89 6.63 14.674 6.47 22.61 16.98 7.937 10.513 10.782 21.671 2.995 11.159 2.995 33.961zm-60.495-16.172q0-16.495-1.647-20.7-1.647-4.366-7.038-4.366-5.39 0-7.188 4.366-1.796 4.205-1.796 20.7v96.87q0 15.201 1.796 19.891 1.797 4.528 7.038 4.528 5.39 0 7.038-4.204 1.797-4.205 1.797-18.113zM1507.517 609.264V439.621h-21.413v108.352q0 29.594-6.289 42.37-6.289 12.614-19.915 15.848-13.477 3.073-44.323 3.073h-9.883v-35.093q11.53-.162 15.873-3.073 4.342-3.072 4.342-21.185v-155.25h141.654v214.601zM1724.49 470.024v52.559q0 28.947-2.696 42.532-2.695 13.422-11.53 25.228-8.834 11.644-22.76 17.304-13.776 5.498-31.745 5.498-20.065 0-33.99-4.69-13.926-4.851-21.713-14.393-7.637-9.703-10.93-23.287-3.295-13.746-3.295-41.077v-54.984q0-29.918 5.99-46.737 5.989-16.818 21.562-27.007 15.573-10.188 39.83-10.188 20.365 0 34.89 6.63 14.674 6.47 22.61 16.98 7.937 10.513 10.782 21.671 2.995 11.159 2.995 33.961zm-60.495-16.172q0-16.495-1.647-20.7-1.647-4.366-7.038-4.366-5.39 0-7.187 4.366-1.797 4.205-1.797 20.7v96.87q0 15.201 1.797 19.891 1.796 4.528 7.037 4.528 5.39 0 7.038-4.204 1.797-4.205 1.797-18.113zM1744.405 609.264v-214.6h95.085v37.033h-34.74v177.567zM2000.16 609.264h-52.708V493.312l-42.077 115.952h-55.104v-214.6h52.708v114.981l41.328-114.982h55.853zM2171.612 609.264h-52.708V493.312l-42.077 115.952h-55.104v-214.6h52.708v114.981l41.328-114.982h55.853z"/></g><g style="-inkscape-font-specification:Impact"><path d="M2064.415 184.796h102.343v26.262h-102.343z" aria-label="–" font-size="162"/></g></g><path d="M317.939 607.41H0V316.853C0 172.472 113.588 55.437 253.72 55.437h317.937v290.56c0 144.364-113.588 261.414-253.718 261.414" fill="#595857"/><path d="M571.657 345.997c0 144.364-113.588 261.414-253.718 261.414H0V316.852C0 172.471 113.588 55.437 253.72 55.437h317.937v290.56" fill="#1c1c1e"/><path d="M322.097 309.512c11.543 0 20.934-9.676 20.934-21.552v-3.545c0-11.876-9.391-21.536-20.934-21.536H257.16v46.633h64.938" fill="#f1b20d"/><path d="M392.659 380.4c0 37.007-29.231 67.143-65.166 67.143h-1.581v19.805h-41.853v-19.805h-17.151v19.805h-41.836v-19.805h-30.503V404.42h20.755V262.88h-20.755V219.74h30.503v-24.256h41.836v24.256h17.15v-24.256h41.854v24.459c32.836 2.05 58.953 30.135 58.953 64.47v3.546a65.586 65.586 0 0 1-13.172 39.492c12.863 12.279 20.966 29.748 20.966 49.201zM285.837 112.333c-117.436 0-212.633 98.102-212.633 219.083 0 120.997 95.197 219.084 212.633 219.084 117.419 0 212.616-98.087 212.616-219.084 0-120.981-95.197-219.083-212.616-219.083" fill="#f1b20d"/><path d="M350.808 376.653c0-13.253-10.468-24.021-23.315-24.021H257.16v51.79H327.494c12.846 0 23.314-10.769 23.314-24.022v-3.747" fill="#f1b20d"/></svg>