<svg xmlns="http://www.w3.org/2000/svg" height="649.733" width="2933.333"><g style="-inkscape-font-specification:Phosphate-Solid"><path d="M174.61 437.945q7.466 1.76 16 2.934 7.466 1.173 15.466 2.346 8.533.587 17.067.587 14.933 0 28.8-3.52 14.4-4.107 25.6-12.907 11.2-8.8 17.6-22.293 6.933-14.08 6.933-34.027 0-17.013-8-32.266-7.467-15.254-19.733-29.334-11.734-14.08-25.6-26.986-13.334-12.907-25.6-25.814-11.734-13.493-19.734-26.4-7.466-13.493-7.466-27.573 0-21.12 12.266-32.267 12.267-11.733 39.467-11.733 4.267 0 8.533.587 4.8 0 9.067.586 4.267.587 8.533.587v-15.253q-3.733 0-8-.587-3.733-.587-8.533-.587-4.267-.586-9.067-.586-28.8 0-47.466 14.666-18.667 14.08-18.667 44.587 0 16.427 7.467 31.093 8 14.08 19.733 28.16 12.267 13.494 25.6 26.4 13.867 12.907 25.6 26.4 12.267 12.907 19.733 26.987 8 14.08 8 29.333 0 28.16-17.6 42.827-17.066 14.667-47.466 14.667-18.134 0-33.067-2.934-8-1.173-15.467-2.933zm-44.8-70.4q11.733 4.107 24.533 6.454 10.666 2.933 24 4.693 13.866 1.76 27.733 1.76 24.533 0 24.533-19.947 0-7.626-7.466-15.253-7.467-8.213-19.2-17.6-11.2-9.973-24.534-21.707-12.8-11.733-24.533-26.986-11.2-15.254-18.667-34.027-7.466-19.36-7.466-44 0-27.573 9.066-48.693 9.067-21.12 25.067-35.2 16-14.08 37.333-21.12 21.867-7.627 46.4-7.627 12.8 0 25.6 1.76 12.8 1.173 22.934 2.347 11.733 1.76 22.933 3.52v109.706q-4.267-.586-9.6-1.173-4.267-.587-9.6-1.173-5.333-.587-11.2-.587-3.2 0-8 .587-4.8 0-9.067 1.173-4.266 1.173-7.466 4.107-3.2 2.933-3.2 8.213 0 4.693 6.933 11.733 7.467 7.04 17.6 16.427 10.667 9.387 22.933 21.707 12.8 12.32 22.934 28.16 10.666 15.84 17.6 35.786 7.466 19.947 7.466 44.587 0 25.813-7.466 48.693-7.467 22.294-23.467 39.307-15.467 16.427-40 25.813-24.533 9.974-58.133 9.974-20.267 0-37.867-2.347-17.067-1.76-30.4-4.693-15.467-2.934-28.267-7.04z" aria-label="S" font-size="440" font-family="Phosphate" fill="#d4711c"/></g><g style="-inkscape-font-specification:Phosphate-Solid" aria-label="OLAR" font-size="308" font-family="Phosphate" fill="#1f1d1e"><path d="M368.208 352.233q0-29.568 10.08-55.85 10.453-26.283 28-45.584 17.92-19.712 41.813-30.8 23.894-11.499 50.774-11.499 26.88 0 50.773 11.499 23.893 11.088 41.44 30.8 17.92 19.301 28 45.584 10.453 26.282 10.453 55.85t-10.453 55.851q-10.08 26.283-28 45.995-17.547 19.301-41.44 30.8-23.893 11.088-50.773 11.088-26.88 0-50.774-11.088-23.893-11.499-41.813-30.8-17.547-19.712-28-45.995-10.08-26.283-10.08-55.85zm35.093 0q0 21.766 7.467 41.067 7.467 18.89 20.533 33.264 13.067 14.373 30.24 22.587 17.547 8.213 37.334 8.213 19.786 0 36.96-8.213 17.546-8.214 30.613-22.587t20.533-33.264q7.467-19.301 7.467-41.067 0-21.765-7.467-40.656-7.466-19.301-20.533-33.674-13.067-14.374-30.613-22.587-17.174-8.213-36.96-8.213-19.787 0-37.334 8.213-17.173 8.213-30.24 22.587-13.066 14.373-20.533 33.674-7.467 18.891-7.467 40.656zm43.307 0q0 11.91 4.107 22.587 4.106 10.267 11.2 18.07 7.093 7.802 16.426 12.32 9.707 4.517 20.534 4.517 10.826 0 20.16-4.518 9.706-4.517 16.8-12.32 7.093-7.802 11.2-18.069 4.106-10.677 4.106-22.587 0-11.909-4.106-22.176-4.107-10.677-11.2-18.48-7.094-7.802-16.8-12.32-9.334-4.517-20.16-4.517-10.827 0-20.534 4.517-9.333 4.518-16.426 12.32-7.094 7.803-11.2 18.48-4.107 10.267-4.107 22.176zm52.267 94.454q-17.92 0-33.6-7.392-15.307-7.392-27.254-20.123-11.573-13.141-18.293-29.979-6.72-17.248-6.72-36.96t6.72-36.549q6.72-17.248 18.293-29.979 11.947-13.141 27.254-20.533 15.68-7.392 33.6-7.392t33.226 7.392q15.68 7.392 27.254 20.533 11.946 12.731 18.666 29.979 6.72 16.837 6.72 36.55 0 19.711-6.72 36.96-6.72 16.837-18.666 29.978-11.574 12.73-27.254 20.123-15.306 7.392-33.226 7.392zM650.07 215.07h82.88V417.12h68.694v71.866H650.071zm130.667 241.062v-9.856h-83.626V247.924h-9.707v208.208zM901.69 215.07h59.734l94.453 273.915h-78.4l-8.213-24.64h-75.413l-8.214 24.64h-78.4zm46.667 188.907l-16.8-48.048-16.8 48.048zm-85.493 52.155l7.093-20.533h123.2l7.094 20.533h10.453l-72.053-208.208h-14.187l-72.053 208.208zm68.693-198.352l58.24 167.963h-116.48zM1139.128 393.71q14.56 0 28.373-3.285l35.467 65.707h11.573l-37.333-68.992q20.16-7.803 32.107-23.819 11.946-16.426 11.946-42.298 0-18.07-6.346-31.622-6.347-13.552-17.547-22.586-10.827-9.446-25.76-13.963-14.933-4.928-32.48-4.928h-40.32v208.208h9.707v-62.421zm-30.613-9.855V257.78h30.613q33.973 0 53.013 16.427 19.414 16.426 19.414 46.816 0 30.389-19.414 46.816-19.04 16.016-53.013 16.016zm-47.04-168.784h85.866q23.894 0 44.054 6.981 20.533 6.981 35.466 20.533 14.934 13.552 23.147 33.675 8.587 19.712 8.587 45.584 0 20.533-5.227 34.907-5.227 14.373-11.573 23.818-7.467 10.678-16.8 18.07l46.666 90.346h-93.333l-37.333-69.402v69.402h-79.52zm79.52 134.698h4.106q14.187 0 23.894-6.981 10.08-6.981 10.08-23.408t-10.08-23.408q-9.707-6.981-23.894-6.981h-4.106z"/></g><g style="-inkscape-font-specification:Phosphate-Solid"><path d="M1343.925 293.625q0-28.16 8.534-52.8 9.066-24.64 25.066-42.826 16-18.187 38.934-28.747 22.933-10.56 51.2-10.56 13.866 0 24.533 2.347 11.2 1.76 18.667 4.693 9.066 2.933 15.466 7.04l7.467-14.08q-8.533-4.107-18.133-7.627-9.067-2.933-20.8-5.28-11.734-2.346-27.2-2.346-27.2 0-52.267 10.56-24.533 10.56-43.733 30.506-18.667 19.36-30.4 47.52-11.2 27.574-11.2 61.6 0 34.614 10.666 62.187 11.2 27.573 30.4 47.52 19.2 19.36 44.8 29.92 25.6 10.56 54.4 10.56 16 0 28.8-2.933 12.8-2.934 21.867-6.454 10.133-4.106 18.133-9.386l-7.466-14.08q-6.934 5.28-16 8.8-8 3.52-19.2 6.453-11.2 2.347-26.134 2.347-29.333 0-52.8-10.56-23.466-10.56-40-28.747-16-18.187-25.066-42.827-8.534-24.64-8.534-52.8zm-67.2 0q0-46.933 14.934-84.48 14.933-38.133 40.533-65.12 25.6-26.986 59.733-41.066 34.134-14.667 72.534-14.667 30.4 0 53.866 6.453 24 6.454 41.067 14.667 19.733 9.387 34.133 20.533l-56 108.534q-8.533-7.04-18.666-13.494-9.067-4.693-21.867-8.8-12.267-4.693-28.267-4.693-16.533 0-30.4 6.453-13.866 6.454-24.533 17.6-10.133 11.147-16 26.4-5.867 14.667-5.867 31.68 0 17.014 5.867 32.267 6.4 14.667 17.067 25.813 10.666 11.147 25.066 17.6 14.4 6.454 31.467 6.454t30.4-4.694q13.333-4.693 22.4-10.56 10.667-6.453 18.667-15.253l56 108.533q-14.4 12.907-34.134 22.88-17.066 8.214-41.066 15.254-24 7.04-54.934 7.04-41.6 0-76.8-14.667-35.2-15.253-60.8-42.24-25.6-26.987-40-64.533-14.4-38.134-14.4-83.894z" aria-label="C" font-size="440" font-family="Phosphate" fill="#d4711c"/></g><g style="-inkscape-font-specification:Phosphate-Solid" aria-label="OIN" font-size="308" font-family="Phosphate" fill="#1f1d1e"><path d="M1600.987 352.233q0-29.568 10.08-55.85 10.453-26.283 28-45.584 17.92-19.712 41.813-30.8 23.893-11.499 50.773-11.499 26.88 0 50.774 11.499 23.893 11.088 41.44 30.8 17.92 19.301 28 45.584 10.453 26.282 10.453 55.85t-10.453 55.851q-10.08 26.283-28 45.995-17.547 19.301-41.44 30.8-23.894 11.088-50.774 11.088-26.88 0-50.773-11.088-23.893-11.499-41.813-30.8-17.547-19.712-28-45.995-10.08-26.283-10.08-55.85zm35.093 0q0 21.766 7.467 41.067 7.466 18.89 20.533 33.264 13.067 14.373 30.24 22.587 17.547 8.213 37.333 8.213 19.787 0 36.96-8.213 17.547-8.214 30.614-22.587 13.066-14.373 20.533-33.264 7.467-19.301 7.467-41.067 0-21.765-7.467-40.656-7.467-19.301-20.533-33.674-13.067-14.374-30.614-22.587-17.173-8.213-36.96-8.213-19.786 0-37.333 8.213-17.173 8.213-30.24 22.587-13.067 14.373-20.533 33.674-7.467 18.891-7.467 40.656zm43.307 0q0 11.91 4.106 22.587 4.107 10.267 11.2 18.07 7.094 7.802 16.427 12.32 9.707 4.517 20.533 4.517 10.827 0 20.16-4.518 9.707-4.517 16.8-12.32 7.094-7.802 11.2-18.069 4.107-10.677 4.107-22.587 0-11.909-4.107-22.176-4.106-10.677-11.2-18.48-7.093-7.802-16.8-12.32-9.333-4.517-20.16-4.517-10.826 0-20.533 4.517-9.333 4.518-16.427 12.32-7.093 7.803-11.2 18.48-4.106 10.267-4.106 22.176zm52.266 94.454q-17.92 0-33.6-7.392-15.306-7.392-27.253-20.123-11.573-13.141-18.293-29.979-6.72-17.248-6.72-36.96t6.72-36.549q6.72-17.248 18.293-29.979 11.947-13.141 27.253-20.533 15.68-7.392 33.6-7.392t33.227 7.392q15.68 7.392 27.253 20.533 11.947 12.731 18.667 29.979 6.72 16.837 6.72 36.55 0 19.711-6.72 36.96-6.72 16.837-18.667 29.978-11.573 12.73-27.253 20.123-15.307 7.392-33.227 7.392zM1882.85 215.07h84.373v273.915h-84.374zm47.04 241.062V247.924h-9.707v208.208zM1993.352 215.07h65.333l68.694 105.542V215.071h78.026v273.914H2139.7l-68.32-105.13v105.13h-78.027zm44.427 241.062V266.404l123.2 189.728h9.706V247.924h-9.706v189.728l-123.2-189.728h-9.707v208.208z"/></g><g style="-inkscape-font-specification:Phosphate-Solid"><path d="M2234.467 391.012H2348.6v97.973h-114.133zm82.133 55.733v-13.493h-50.133v13.493z" aria-label="." font-size="440" font-family="Phosphate" fill="#d4711c"/></g><g style="-inkscape-font-specification:Phosphate-Solid" aria-label="RU" font-size="308" font-family="Phosphate" fill="#1f1d1e"><path d="M2455.32 393.71q14.56 0 28.373-3.285l35.467 65.707h11.573L2493.4 387.14q20.16-7.803 32.107-23.819 11.946-16.426 11.946-42.298 0-18.07-6.346-31.622-6.347-13.552-17.547-22.586-10.827-9.446-25.76-13.963-14.933-4.928-32.48-4.928H2415v208.208h9.707v-62.421zm-30.613-9.855V257.78h30.613q33.973 0 53.013 16.427 19.414 16.426 19.414 46.816 0 30.389-19.414 46.816-19.04 16.016-53.013 16.016zm-47.04-168.784h85.866q23.894 0 44.054 6.981 20.533 6.981 35.466 20.533 14.934 13.552 23.147 33.675 8.587 19.712 8.587 45.584 0 20.533-5.227 34.907-5.227 14.373-11.573 23.818-7.467 10.678-16.8 18.07l46.666 90.346h-93.333l-37.333-69.402v69.402h-79.52zm79.52 134.698h4.106q14.187 0 23.894-6.981 10.08-6.981 10.08-23.408t-10.08-23.408q-9.707-6.981-23.894-6.981h-4.106zM2697.237 495.967q-23.52 0-42.56-6.571-19.04-6.57-32.48-19.712-13.44-13.141-20.906-33.264-7.094-20.123-7.094-47.227V215.071h79.52v170.426q0 14.374 5.227 22.176 5.6 7.392 18.293 7.392 12.694 0 17.92-7.392 5.6-7.802 5.6-22.176V215.071h79.894v174.122q0 27.104-7.467 47.227-7.093 20.123-20.907 33.264-13.44 13.141-32.48 19.712-19.04 6.57-42.56 6.57zm0-49.28q-56 0-56-60.368V247.924h-9.706v138.395q0 34.496 16.8 52.976 17.173 18.069 48.906 18.069 31.734 0 48.907-18.07 17.173-18.48 17.173-52.975V247.924h-10.08v138.395q0 60.368-56 60.368z"/></g></svg>