<svg xmlns="http://www.w3.org/2000/svg" height="344.093" width="245.08"><path d="M42.305 47.603l80.15-47.608 79.318 45.942v157.138l-79.318 45.609-80.15-45.61" fill="#ee2f2f"/><path d="M173.596 199.685l20.603-12.649-61.783-35.741-.018.012V39.739l.009-.007V15.475L49.879 63.376v24.256l.142-.083v112.136l61.792 35.672 20.594-11.938-61.782-35.744-.01.005V75.597l10.293-5.973v112.267l31.494 17.764 20.005-12.27L101.502 170V57.67l10.303-5.98v112.32l1.711-.987-1.52.944 61.6 35.718" fill="#171717"/><path d="M173.596 68.568l-20.984 76.91-20.205-53.107-20.594 11.874v131.112l20.594-11.89v-72.338l10.572 30.804 20.926-12.422 9.691-38.812v68.981l20.593-12.644V56.693l-20.593 11.875" fill="#fff"/><path d="M76.283 313.433V293.59h-6.072v-4.872h20.62v4.872h-6.073v19.844h-8.475M138.039 313.433V293.59h-6.073v-4.872h20.62v4.872h-6.073v19.844h-8.474M110.957 288.717v4.8h-10.876v5.19h6.11v4.521h-6.11v5.403h10.732v4.802H91.606v-24.716h19.351M123.63 305.841l-2.365-9.781-2.295 9.781zm4.662-17.124l6.215 24.716h-9.075l-.741-3.071h-6.816l-.74 3.071h-6.322l6.215-24.716h11.264M163.815 298.708c.704 0 1.941 0 2.577-.74.493-.601.528-1.696.528-2.083 0-.53-.035-1.413-.565-1.978-.599-.672-1.588-.672-2.259-.672h-2.26v5.473zm4.06-9.99c3.178 0 6.99.386 6.99 6.706 0 3.32-.458 4.768-1.941 5.968-1.413 1.165-3.601 1.836-7.628 1.836h-3.46v10.205h-8.475v-24.716h14.514M42.13 319.095l2.296 9.816h.211l2.26-9.816h12.606v24.717H51.03v-18.61h-.212l-4.378 18.61h-6.286l-4.378-18.61h-.212v18.61h-5.12v-24.717H42.13M87.68 326.439c0-.742-.035-1.73-.53-2.33-.6-.742-1.553-.777-2.295-.777-.741 0-1.695.035-2.296.777-.494.6-.529 1.588-.529 2.33v10.028c0 .742.035 1.73.53 2.33.6.742 1.554.777 2.295.777.742 0 1.694-.035 2.295-.777.495-.6.53-1.588.53-2.33zm-13.772 2.296v-2.05c0-1.835-.14-4.589 2.543-6.39 2.083-1.413 4.767-1.483 8.404-1.483 3.673 0 6.674.07 8.757 1.483 2.683 1.801 2.543 4.59 2.543 6.39v9.535c0 1.801.14 4.59-2.543 6.39-2.083 1.412-5.084 1.485-8.757 1.485-3.637 0-6.32-.073-8.404-1.484-2.684-1.8-2.543-4.555-2.543-6.391v-2.684h-3.707v10.276h-8.475v-24.717h8.475v9.64h3.707M98.235 326.332c0-1.34.105-3.848 2.011-5.613 1.978-1.837 4.91-1.907 8.263-1.907 3.356 0 6.25.353 8.192 2.155 1.483 1.374 1.766 3 1.766 4.977 0 1.377-.283 2.79-1.483 3.85-.777.67-1.942 1.13-2.966 1.271v.176c1.554.141 3 .848 3.884 1.871 1.059 1.236 1.201 2.65 1.201 4.132 0 1.448-.177 3.248-1.908 4.872-2.011 1.872-4.978 1.979-9.039 1.979-3.85 0-7.627-.459-9.322-2.862-1.094-1.552-1.094-3.636-1.094-5.72v-1.412h5.65v1.06c0 .919.034 1.976.565 2.86.847 1.412 2.189 1.553 3.46 1.553.706 0 1.729-.106 2.436-.811.671-.671.777-1.554.777-2.367 0-.707-.036-1.41-.6-2.048-.388-.423-1.06-.883-2.19-.883h-2.258v-4.52h2.4c1.13 0 1.729-.53 2.013-.917.423-.565.387-1.2.387-1.801 0-.707.106-1.342-.564-2.048-.777-.812-1.624-.847-2.401-.847-.954 0-2.12.107-2.967.952-.812.85-.917 1.979-.917 3.037v1.095h-5.296v-2.084M129.617 319.095v12.5h.141l4.697-12.5h8.474v24.717h-8.474v-12.5h-.142l-4.696 12.5h-8.474v-24.717h8.474M153.292 319.095v9.64h1.979c.669 0 1.41-.036 1.941-.78.459-.6.493-1.516.493-3.07v-2.506c0-1.379.319-2.507 1.343-3.284h8.192c-.6.565-1.553 1.694-1.553 4.413v2.4c0 1.908-.318 2.79-1.166 3.745-.565.634-1.2 1.13-2.296 1.342v.105c1.167.176 2.332.707 2.931 1.624.495.741.741 1.941.812 2.862l.107 1.693c.105 1.907-.035 3.566 1.165 5.262.283.423.776.917 1.165 1.271h-8.05a2.845 2.845 0 0 1-1.484-.988c-.671-.883-.742-2.368-.776-3.673l-.071-2.436c-.035-1.096 0-2.014-.884-2.684-.635-.495-1.412-.495-2.117-.495h-1.731v10.276h-8.475v-24.717h8.475" fill="#171717"/><path d="M190.475 343.812H182v-19.845h-4.661l-.318 6.568-.106 2.542-.212 3.25c-.106 1.553-.106 3.354-.847 4.906-.353.742-.919 1.52-2.013 2.013-1.024.46-2.754.566-3.674.566h-1.764v-5.05h.776c1.166 0 1.626-.6 1.732-.776.176-.282.318-.707.494-2.224.281-2.437.281-4.097.353-6.146l.105-2.26c.036-1.093.072-2.19.106-3.282l.177-4.98h18.327v24.718M203.759 336.22l-2.366-9.781-2.293 9.78zm4.661-17.125l6.215 24.717h-9.075l-.741-3.073h-6.816l-.74 3.073h-6.32l6.213-24.717h11.264M11.646 258.693l2.286 9.782h.211l2.252-9.782h12.56v24.628h-8.443V264.78H20.3l-4.362 18.542H9.675L5.313 264.78h-.21v18.542H0v-24.628h11.646M45.003 266.012c0-.738-.035-1.725-.527-2.323-.599-.738-1.548-.774-2.286-.774-.74 0-1.69.036-2.289.774-.492.598-.527 1.585-.527 2.323v9.99c0 .74.035 1.725.527 2.323.6.74 1.549.775 2.289.775.738 0 1.687-.036 2.286-.775.492-.598.527-1.584.527-2.322zm-14.073.245c0-1.794-.14-4.573 2.534-6.368 2.11-1.407 5.065-1.477 8.726-1.477 3.658 0 6.614.07 8.724 1.477 2.673 1.795 2.533 4.574 2.533 6.368v9.499c0 1.796.14 4.575-2.533 6.368-2.11 1.408-5.066 1.48-8.724 1.48-3.66 0-6.615-.072-8.726-1.48-2.674-1.793-2.534-4.572-2.534-6.368v-9.499M71.601 266.68c0-3.624-1.97-3.765-3.94-3.765-1.302 0-2.639 0-3.378 1.408-.422.774-.492 1.898-.492 3.869v6.51c0 .914-.035 2.497.808 3.447.88.951 2.429.951 3.273.951 1.407 0 3.73-.036 3.73-4.328v-1.126h5.98v1.02c0 2.99-.105 5.594-2.64 7.389-2.145 1.512-4.82 1.549-8.478 1.549-3.623 0-6.508-.072-8.584-1.48-2.674-1.793-2.533-4.537-2.533-6.368v-9.499c0-1.829-.14-4.573 2.533-6.368 2.076-1.407 4.96-1.477 8.584-1.477 3.414 0 6.685.034 8.55 1.548 2.111 1.69 2.075 4.503 2.075 6.297v1.724h-5.488v-1.301M87.72 258.693v9.604h1.97c.669 0 1.406-.034 1.935-.773.457-.597.492-1.512.492-3.061v-2.498c0-1.372.318-2.497 1.338-3.272h8.162c-.599.564-1.55 1.69-1.55 4.399v2.392c0 1.9-.314 2.779-1.16 3.73-.562.631-1.196 1.123-2.285 1.337v.105c1.16.176 2.32.702 2.92 1.618.491.738.738 1.935.809 2.849l.104 1.69c.106 1.9-.034 3.552 1.162 5.242.281.421.774.914 1.161 1.266h-8.022a2.82 2.82 0 0 1-1.477-.985c-.67-.88-.74-2.357-.774-3.659l-.07-2.428c-.036-1.089 0-2.005-.88-2.673-.634-.494-1.408-.494-2.11-.494h-1.726v10.24h-8.443v-24.629h8.443" fill="#171717"/><path d="M116.54 266.012c0-.738-.035-1.725-.527-2.323-.598-.738-1.549-.774-2.287-.774-.74 0-1.69.036-2.287.774-.494.598-.528 1.585-.528 2.323v9.99c0 .74.034 1.725.528 2.323.597.74 1.547.775 2.287.775.738 0 1.689-.036 2.287-.775.492-.598.527-1.584.527-2.322zm-14.072.245c0-1.794-.142-4.573 2.532-6.368 2.111-1.407 5.067-1.477 8.726-1.477 3.658 0 6.613.07 8.725 1.477 2.674 1.795 2.533 4.574 2.533 6.368v9.499c0 1.796.14 4.575-2.533 6.368-2.112 1.408-5.067 1.48-8.725 1.48-3.66 0-6.615-.072-8.726-1.48-2.674-1.793-2.532-4.572-2.532-6.368v-9.499M135.679 278.819h2.533c.564 0 1.865-.038 2.604-.811.597-.633.632-1.443.632-2.04 0-.739-.105-1.653-.668-2.217-.457-.458-1.301-.739-2.357-.739h-2.744zm0-10.31H138c.528 0 1.831-.034 2.499-.809.456-.528.492-1.23.492-1.759 0-.6 0-1.55-.739-2.181-.633-.53-1.584-.564-2.428-.564h-2.146zm5.982-9.816c2.111 0 4.398.106 6.086 1.62.88.807 1.9 2.39 1.9 5.206 0 1.653-.528 4.574-4.434 5.1v.177c.318.036 2.216.21 3.588 1.584 1.41 1.407 1.479 3.061 1.479 4.396 0 1.901-.247 3.767-2.463 5.21-.598.384-2.286 1.335-5.488 1.335h-15.093v-24.628h14.425M168.372 266.68c0-3.624-1.972-3.765-3.941-3.765-1.302 0-2.639 0-3.376 1.408-.423.774-.494 1.898-.494 3.869v6.51c0 .914-.036 2.497.81 3.447.88.951 2.426.951 3.272.951 1.408 0 3.729-.036 3.729-4.328v-1.126h5.98v1.02c0 2.99-.105 5.594-2.637 7.389-2.147 1.512-4.822 1.549-8.48 1.549-3.623 0-6.508-.072-8.584-1.48-2.675-1.793-2.534-4.537-2.534-6.368v-9.499c0-1.829-.141-4.573 2.534-6.368 2.076-1.407 4.961-1.477 8.584-1.477 3.413 0 6.684.034 8.549 1.548 2.11 1.69 2.076 4.503 2.076 6.297v1.724h-5.488v-1.301M184.38 258.693v9.604h1.97c.669 0 1.407-.034 1.935-.773.458-.597.492-1.512.492-3.061v-2.498c0-1.372.318-2.497 1.338-3.272h8.162c-.598.564-1.549 1.69-1.549 4.399v2.392c0 1.9-.316 2.779-1.161 3.73-.562.631-1.196 1.123-2.287 1.337v.105c1.163.176 2.324.702 2.921 1.618.492.738.74 1.935.808 2.849l.107 1.69c.107 1.9-.036 3.552 1.161 5.242.282.421.775.914 1.162 1.266h-8.023a2.822 2.822 0 0 1-1.477-.985c-.668-.88-.739-2.357-.774-3.659l-.07-2.428c-.036-1.089 0-2.005-.88-2.673-.634-.494-1.407-.494-2.111-.494h-1.724v10.24h-8.444v-24.629h8.444M207.883 258.693v12.455h.14l4.678-12.455h8.444v24.628h-8.444v-12.454h-.141l-4.677 12.454h-8.444v-24.628h8.444M241.31 250.777c.107 3.026-.666 4.152-.843 4.398-1.231 1.653-4.116 1.76-6.262 1.76s-5.032-.107-6.262-1.76c-.176-.246-.95-1.372-.844-4.398h4.504v.246c0 .458.033 1.302.597 1.83.527.492 1.336.563 2.005.563.67 0 1.476-.07 2.006-.563.562-.528.597-1.372.597-1.83v-.246zm-9.497 7.916v12.455h.14l4.68-12.455h8.443v24.628h-8.443v-12.454h-.141l-4.679 12.454h-8.445v-24.628h8.445M76.283 313.433V293.59h-6.072v-4.872h20.62v4.872h-6.073v19.844h-8.475M138.039 313.433V293.59h-6.073v-4.872h20.62v4.872h-6.073v19.844h-8.474M110.957 288.717v4.8h-10.876v5.19h6.11v4.521h-6.11v5.403h10.732v4.802H91.606v-24.716h19.351M123.63 305.841l-2.365-9.781-2.295 9.781zm4.662-17.124l6.215 24.716h-9.075l-.741-3.071h-6.816l-.74 3.071h-6.322l6.215-24.716h11.264M163.815 298.708c.704 0 1.941 0 2.577-.74.493-.601.528-1.696.528-2.083 0-.53-.035-1.413-.565-1.978-.599-.672-1.588-.672-2.259-.672h-2.26v5.473zm4.06-9.99c3.178 0 6.99.386 6.99 6.706 0 3.32-.458 4.768-1.941 5.968-1.413 1.165-3.601 1.836-7.628 1.836h-3.46v10.205h-8.475v-24.716h14.514M42.13 319.095l2.296 9.816h.211l2.26-9.816h12.606v24.717H51.03v-18.61h-.212l-4.378 18.61h-6.286l-4.378-18.61h-.212v18.61h-5.12v-24.717H42.13M87.68 326.439c0-.742-.035-1.73-.53-2.33-.6-.742-1.553-.777-2.295-.777-.741 0-1.695.035-2.296.777-.494.6-.529 1.588-.529 2.33v10.028c0 .742.035 1.73.53 2.33.6.742 1.554.777 2.295.777.742 0 1.694-.035 2.295-.777.495-.6.53-1.588.53-2.33zm-13.772 2.296v-2.05c0-1.835-.14-4.589 2.543-6.39 2.083-1.413 4.767-1.483 8.404-1.483 3.673 0 6.674.07 8.757 1.483 2.683 1.801 2.543 4.59 2.543 6.39v9.535c0 1.801.14 4.59-2.543 6.39-2.083 1.412-5.084 1.485-8.757 1.485-3.637 0-6.32-.073-8.404-1.484-2.684-1.8-2.543-4.555-2.543-6.391v-2.684h-3.707v10.276h-8.475v-24.717h8.475v9.64h3.707M98.235 326.332c0-1.34.105-3.848 2.011-5.613 1.978-1.837 4.91-1.907 8.263-1.907 3.356 0 6.25.353 8.192 2.155 1.483 1.374 1.766 3 1.766 4.977 0 1.377-.283 2.79-1.483 3.85-.777.67-1.942 1.13-2.966 1.271v.176c1.554.141 3 .848 3.884 1.871 1.059 1.236 1.201 2.65 1.201 4.132 0 1.448-.177 3.248-1.908 4.872-2.011 1.872-4.978 1.979-9.039 1.979-3.85 0-7.627-.459-9.322-2.862-1.094-1.552-1.094-3.636-1.094-5.72v-1.412h5.65v1.06c0 .919.034 1.976.565 2.86.847 1.412 2.189 1.553 3.46 1.553.706 0 1.729-.106 2.436-.811.671-.671.777-1.554.777-2.367 0-.707-.036-1.41-.6-2.048-.388-.423-1.06-.883-2.19-.883h-2.258v-4.52h2.4c1.13 0 1.729-.53 2.013-.917.423-.565.387-1.2.387-1.801 0-.707.106-1.342-.564-2.048-.777-.812-1.624-.847-2.401-.847-.954 0-2.12.107-2.967.952-.812.85-.917 1.979-.917 3.037v1.095h-5.296v-2.084M129.617 319.095v12.5h.141l4.697-12.5h8.474v24.717h-8.474v-12.5h-.142l-4.696 12.5h-8.474v-24.717h8.474M153.292 319.095v9.64h1.979c.669 0 1.41-.036 1.941-.78.459-.6.493-1.516.493-3.07v-2.506c0-1.379.319-2.507 1.343-3.284h8.192c-.6.565-1.553 1.694-1.553 4.413v2.4c0 1.908-.318 2.79-1.166 3.745-.565.634-1.2 1.13-2.296 1.342v.105c1.167.176 2.332.707 2.931 1.624.495.741.741 1.941.812 2.862l.107 1.693c.105 1.907-.035 3.566 1.165 5.262.283.423.776.917 1.165 1.271h-8.05a2.845 2.845 0 0 1-1.484-.988c-.671-.883-.742-2.368-.776-3.673l-.071-2.436c-.035-1.096 0-2.014-.884-2.684-.635-.495-1.412-.495-2.117-.495h-1.731v10.276h-8.475v-24.717h8.475" fill="#171717"/><path d="M190.475 343.812H182v-19.845h-4.661l-.318 6.568-.106 2.542-.212 3.25c-.106 1.553-.106 3.354-.847 4.906-.353.742-.919 1.52-2.013 2.013-1.024.46-2.754.566-3.674.566h-1.764v-5.05h.776c1.166 0 1.626-.6 1.732-.776.176-.282.318-.707.494-2.224.281-2.437.281-4.097.353-6.146l.105-2.26c.036-1.093.072-2.19.106-3.282l.177-4.98h18.327v24.718M203.759 336.22l-2.366-9.781-2.293 9.78zm4.661-17.125l6.215 24.717h-9.075l-.741-3.073h-6.816l-.74 3.073h-6.32l6.213-24.717h11.264M11.646 258.693l2.286 9.782h.211l2.252-9.782h12.56v24.628h-8.443V264.78H20.3l-4.362 18.542H9.675L5.313 264.78h-.21v18.542H0v-24.628h11.646M45.003 266.012c0-.738-.035-1.725-.527-2.323-.599-.738-1.548-.774-2.286-.774-.74 0-1.69.036-2.289.774-.492.598-.527 1.585-.527 2.323v9.99c0 .74.035 1.725.527 2.323.6.74 1.549.775 2.289.775.738 0 1.687-.036 2.286-.775.492-.598.527-1.584.527-2.322zm-14.073.245c0-1.794-.14-4.573 2.534-6.368 2.11-1.407 5.065-1.477 8.726-1.477 3.658 0 6.614.07 8.724 1.477 2.673 1.795 2.533 4.574 2.533 6.368v9.499c0 1.796.14 4.575-2.533 6.368-2.11 1.408-5.066 1.48-8.724 1.48-3.66 0-6.615-.072-8.726-1.48-2.674-1.793-2.534-4.572-2.534-6.368v-9.499M71.601 266.68c0-3.624-1.97-3.765-3.94-3.765-1.302 0-2.639 0-3.378 1.408-.422.774-.492 1.898-.492 3.869v6.51c0 .914-.035 2.497.808 3.447.88.951 2.429.951 3.273.951 1.407 0 3.73-.036 3.73-4.328v-1.126h5.98v1.02c0 2.99-.105 5.594-2.64 7.389-2.145 1.512-4.82 1.549-8.478 1.549-3.623 0-6.508-.072-8.584-1.48-2.674-1.793-2.533-4.537-2.533-6.368v-9.499c0-1.829-.14-4.573 2.533-6.368 2.076-1.407 4.96-1.477 8.584-1.477 3.414 0 6.685.034 8.55 1.548 2.111 1.69 2.075 4.503 2.075 6.297v1.724h-5.488v-1.301M87.72 258.693v9.604h1.97c.669 0 1.406-.034 1.935-.773.457-.597.492-1.512.492-3.061v-2.498c0-1.372.318-2.497 1.338-3.272h8.162c-.599.564-1.55 1.69-1.55 4.399v2.392c0 1.9-.314 2.779-1.16 3.73-.562.631-1.196 1.123-2.285 1.337v.105c1.16.176 2.32.702 2.92 1.618.491.738.738 1.935.809 2.849l.104 1.69c.106 1.9-.034 3.552 1.162 5.242.281.421.774.914 1.161 1.266h-8.022a2.82 2.82 0 0 1-1.477-.985c-.67-.88-.74-2.357-.774-3.659l-.07-2.428c-.036-1.089 0-2.005-.88-2.673-.634-.494-1.408-.494-2.11-.494h-1.726v10.24h-8.443v-24.629h8.443" fill="#171717"/><path d="M116.54 266.012c0-.738-.035-1.725-.527-2.323-.598-.738-1.549-.774-2.287-.774-.74 0-1.69.036-2.287.774-.494.598-.528 1.585-.528 2.323v9.99c0 .74.034 1.725.528 2.323.597.74 1.547.775 2.287.775.738 0 1.689-.036 2.287-.775.492-.598.527-1.584.527-2.322zm-14.072.245c0-1.794-.142-4.573 2.532-6.368 2.111-1.407 5.067-1.477 8.726-1.477 3.658 0 6.613.07 8.725 1.477 2.674 1.795 2.533 4.574 2.533 6.368v9.499c0 1.796.14 4.575-2.533 6.368-2.112 1.408-5.067 1.48-8.725 1.48-3.66 0-6.615-.072-8.726-1.48-2.674-1.793-2.532-4.572-2.532-6.368v-9.499M135.679 278.819h2.533c.564 0 1.865-.038 2.604-.811.597-.633.632-1.443.632-2.04 0-.739-.105-1.653-.668-2.217-.457-.458-1.301-.739-2.357-.739h-2.744zm0-10.31H138c.528 0 1.831-.034 2.499-.809.456-.528.492-1.23.492-1.759 0-.6 0-1.55-.739-2.181-.633-.53-1.584-.564-2.428-.564h-2.146zm5.982-9.816c2.111 0 4.398.106 6.086 1.62.88.807 1.9 2.39 1.9 5.206 0 1.653-.528 4.574-4.434 5.1v.177c.318.036 2.216.21 3.588 1.584 1.41 1.407 1.479 3.061 1.479 4.396 0 1.901-.247 3.767-2.463 5.21-.598.384-2.286 1.335-5.488 1.335h-15.093v-24.628h14.425M168.372 266.68c0-3.624-1.972-3.765-3.941-3.765-1.302 0-2.639 0-3.376 1.408-.423.774-.494 1.898-.494 3.869v6.51c0 .914-.036 2.497.81 3.447.88.951 2.426.951 3.272.951 1.408 0 3.729-.036 3.729-4.328v-1.126h5.98v1.02c0 2.99-.105 5.594-2.637 7.389-2.147 1.512-4.822 1.549-8.48 1.549-3.623 0-6.508-.072-8.584-1.48-2.675-1.793-2.534-4.537-2.534-6.368v-9.499c0-1.829-.141-4.573 2.534-6.368 2.076-1.407 4.961-1.477 8.584-1.477 3.413 0 6.684.034 8.549 1.548 2.11 1.69 2.076 4.503 2.076 6.297v1.724h-5.488v-1.301M184.38 258.693v9.604h1.97c.669 0 1.407-.034 1.935-.773.458-.597.492-1.512.492-3.061v-2.498c0-1.372.318-2.497 1.338-3.272h8.162c-.598.564-1.549 1.69-1.549 4.399v2.392c0 1.9-.316 2.779-1.161 3.73-.562.631-1.196 1.123-2.287 1.337v.105c1.163.176 2.324.702 2.921 1.618.492.738.74 1.935.808 2.849l.107 1.69c.107 1.9-.036 3.552 1.161 5.242.282.421.775.914 1.162 1.266h-8.023a2.822 2.822 0 0 1-1.477-.985c-.668-.88-.739-2.357-.774-3.659l-.07-2.428c-.036-1.089 0-2.005-.88-2.673-.634-.494-1.407-.494-2.111-.494h-1.724v10.24h-8.444v-24.629h8.444M207.883 258.693v12.455h.14l4.678-12.455h8.444v24.628h-8.444v-12.454h-.141l-4.677 12.454h-8.444v-24.628h8.444M241.31 250.777c.107 3.026-.666 4.152-.843 4.398-1.231 1.653-4.116 1.76-6.262 1.76s-5.032-.107-6.262-1.76c-.176-.246-.95-1.372-.844-4.398h4.504v.246c0 .458.033 1.302.597 1.83.527.492 1.336.563 2.005.563.67 0 1.476-.07 2.006-.563.562-.528.597-1.372.597-1.83v-.246zm-9.497 7.916v12.455h.14l4.68-12.455h8.443v24.628h-8.443v-12.454h-.141l-4.679 12.454h-8.445v-24.628h8.445" fill="#171717"/></svg>