<svg xmlns="http://www.w3.org/2000/svg" height="69.68" width="520.507"><path d="M62.07 28.012l1.837 7.862h.17l1.81-7.862h10.096v19.796h-6.787V32.905h-.17l-3.507 14.903h-5.034L56.98 32.905h-.17v14.903h-4.1V28.012h9.36M90.128 33.895c0-.594-.03-1.386-.425-1.867-.48-.594-1.244-.623-1.838-.623-.594 0-1.358.029-1.838.623-.396.481-.424 1.273-.424 1.867v8.031c0 .594.028 1.386.424 1.867.48.593 1.244.622 1.838.622.594 0 1.358-.029 1.838-.622.396-.481.425-1.273.425-1.867zm-11.313.198c0-1.443-.113-3.677 2.037-5.12 1.696-1.13 4.072-1.187 7.013-1.187 2.942 0 5.317.057 7.014 1.188 2.15 1.442 2.036 3.676 2.036 5.119v7.635c0 1.443.113 3.677-2.036 5.12-1.697 1.13-4.072 1.186-7.014 1.186-2.941 0-5.317-.056-7.013-1.187-2.15-1.442-2.037-3.676-2.037-5.12v-7.634M112.529 34.432c0-2.913-1.584-3.027-3.168-3.027-1.046 0-2.12 0-2.715 1.131-.34.624-.396 1.528-.396 3.112v5.232c0 .736-.029 2.008.65 2.771.708.764 1.953.764 2.63.764 1.133 0 2.999-.029 2.999-3.478v-.906h4.807v.82c0 2.404-.084 4.497-2.12 5.94-1.726 1.214-3.875 1.243-6.816 1.243-2.913 0-5.232-.056-6.901-1.187-2.15-1.442-2.036-3.648-2.036-5.12v-7.634c0-1.471-.114-3.677 2.036-5.12 1.669-1.13 3.988-1.187 6.901-1.187 2.743 0 5.373.028 6.871 1.245 1.698 1.357 1.67 3.62 1.67 5.062v1.385h-4.412v-1.046M126.672 28.012v7.72h1.583c.537 0 1.132-.027 1.555-.621.369-.482.397-1.216.397-2.46v-2.008c0-1.104.254-2.009 1.074-2.63h6.562c-.482.452-1.246 1.357-1.246 3.535v1.922c0 1.527-.253 2.235-.932 2.998-.452.51-.962.905-1.838 1.075v.084c.933.142 1.866.567 2.346 1.301.396.594.595 1.556.651 2.292l.085 1.356c.086 1.527-.028 2.857.934 4.215.226.338.622.734.933 1.017h-6.448a2.268 2.268 0 0 1-1.188-.792c-.537-.707-.594-1.893-.622-2.94l-.057-1.952c-.028-.876 0-1.612-.706-2.149-.51-.396-1.132-.396-1.698-.396h-1.385v8.23h-6.788V28.011h6.788M151.505 33.895c0-.594-.028-1.386-.424-1.867-.481-.594-1.244-.623-1.838-.623-.595 0-1.358.029-1.839.623-.396.481-.424 1.273-.424 1.867v8.031c0 .594.028 1.386.424 1.867.481.593 1.244.622 1.839.622.594 0 1.357-.029 1.838-.622.396-.481.424-1.273.424-1.867zm-11.312.198c0-1.443-.113-3.677 2.036-5.12 1.696-1.13 4.072-1.187 7.014-1.187 2.941 0 5.317.057 7.013 1.188 2.15 1.442 2.036 3.676 2.036 5.119v7.635c0 1.443.113 3.677-2.036 5.12-1.696 1.13-4.072 1.186-7.013 1.186-2.942 0-5.318-.056-7.014-1.187-2.149-1.442-2.036-3.676-2.036-5.12v-7.634M167.91 44.188h2.037c.453 0 1.5-.027 2.093-.65.48-.51.51-1.16.51-1.64 0-.594-.086-1.329-.538-1.782-.368-.367-1.047-.594-1.896-.594h-2.205zm0-8.286h1.867c.424 0 1.471-.028 2.008-.65.368-.424.396-.99.396-1.414 0-.48 0-1.244-.593-1.753-.51-.425-1.273-.453-1.952-.453h-1.725zm4.809-7.89c1.697 0 3.536.085 4.892 1.3.706.651 1.528 1.924 1.528 4.187 0 1.329-.426 3.676-3.564 4.1v.142c.254.028 1.781.17 2.884 1.273 1.132 1.13 1.188 2.46 1.188 3.534 0 1.528-.198 3.027-1.979 4.186-.481.31-1.839 1.074-4.412 1.074h-12.133V28.012h11.596M195.12 34.432c0-2.913-1.584-3.027-3.168-3.027-1.047 0-2.12 0-2.715 1.131-.338.624-.396 1.528-.396 3.112v5.232c0 .736-.028 2.008.651 2.771.707.764 1.952.764 2.63.764 1.131 0 2.998-.029 2.998-3.478v-.906h4.807v.82c0 2.404-.084 4.497-2.12 5.94-1.726 1.214-3.875 1.243-6.816 1.243-2.914 0-5.232-.056-6.9-1.187-2.15-1.442-2.036-3.648-2.036-5.12v-7.634c0-1.471-.114-3.677 2.036-5.12 1.668-1.13 3.986-1.187 6.9-1.187 2.742 0 5.373.028 6.872 1.245 1.697 1.357 1.669 3.62 1.669 5.062v1.385h-4.412v-1.046M209.263 28.012v7.72h1.584c.537 0 1.13-.027 1.554-.621.368-.482.396-1.216.396-2.46v-2.008c0-1.104.255-2.009 1.075-2.63h6.561c-.481.452-1.244 1.357-1.244 3.535v1.922c0 1.527-.254 2.235-.933 2.998-.452.51-.961.905-1.839 1.075v.084c.934.142 1.867.567 2.348 1.301.396.594.594 1.556.651 2.292l.084 1.356c.085 1.527-.028 2.857.933 4.215.227.338.623.734.934 1.017h-6.448a2.268 2.268 0 0 1-1.188-.792c-.538-.707-.594-1.893-.622-2.94l-.057-1.952c-.028-.876 0-1.612-.707-2.149-.509-.396-1.13-.396-1.697-.396h-1.385v8.23h-6.787V28.011h6.787M229.855 28.012v10.011h.112l3.761-10.01h6.788v19.795h-6.788V37.797h-.112l-3.761 10.011h-6.788V28.012h6.788M258.053 21.65c.086 2.432-.537 3.336-.678 3.534-.991 1.33-3.311 1.414-5.035 1.414-1.724 0-4.044-.084-5.033-1.414-.143-.198-.764-1.102-.68-3.535h3.621v.199c0 .367.028 1.045.48 1.47.424.395 1.075.452 1.612.452.537 0 1.188-.057 1.612-.453.452-.424.481-1.102.481-1.47v-.198zm-7.636 6.362v10.011h.114l3.76-10.01h6.788v19.795h-6.788V37.797h-.112l-3.762 10.011h-6.788V28.012h6.788M274.233 47.808V31.915h-5.146v-3.903h17.08v3.903h-5.147v15.893h-6.787M303.081 28.012v3.846h-8.712v4.157h4.894v3.62h-4.894v4.326h9.108v3.847h-15.893V28.012h15.497M314.31 41.728l-1.894-7.833-1.839 7.833zm3.734-13.716l4.977 19.796h-7.268l-.594-2.46H309.7l-.594 2.46h-5.062l4.978-19.796h9.021M327.181 47.808V31.915h-5.148v-3.903h17.083v3.903h-5.147v15.893h-6.788M348.903 36.015c.565 0 1.556 0 2.065-.593.396-.48.423-1.358.423-1.669 0-.425-.027-1.131-.452-1.583-.48-.538-1.272-.538-1.81-.538h-1.81v4.383zm3.252-8.003c2.545 0 5.6.311 5.6 5.373 0 2.659-.368 3.819-1.555 4.78-1.132.933-2.887 1.47-6.11 1.47h-2.771v8.173h-6.787V28.012h11.623M375.97 28.012l1.84 7.862h.169l1.81-7.862h10.095v19.796h-6.787V32.905h-.169l-3.507 14.903h-5.034l-3.507-14.903h-.17v14.903h-4.1V28.012h9.36M413.785 33.895c0-.594-.028-1.386-.424-1.867-.481-.594-1.244-.623-1.837-.623-.595 0-1.359.029-1.839.623-.396.481-.425 1.273-.425 1.867v8.031c0 .594.03 1.386.425 1.867.48.593 1.244.622 1.839.622.593 0 1.356-.029 1.837-.622.396-.481.424-1.273.424-1.867zm-11.029 1.838v-1.64c0-1.471-.112-3.677 2.037-5.12 1.668-1.13 3.816-1.187 6.731-1.187 2.94 0 5.344.057 7.012 1.188 2.15 1.442 2.037 3.676 2.037 5.119v7.635c0 1.443.114 3.677-2.037 5.12-1.668 1.13-4.072 1.186-7.012 1.186-2.915 0-5.063-.056-6.73-1.187-2.15-1.442-2.038-3.648-2.038-5.12V39.58h-2.97v8.23H393V28.011h6.788v7.72h2.969M423.095 33.81c0-1.074.085-3.084 1.612-4.497 1.584-1.47 3.932-1.527 6.617-1.527 2.687 0 5.005.282 6.561 1.725 1.188 1.103 1.415 2.404 1.415 3.988 0 1.102-.227 2.234-1.188 3.082-.623.538-1.556.905-2.376 1.018v.142c1.244.113 2.404.68 3.11 1.498.85.99.963 2.122.963 3.31 0 1.159-.142 2.601-1.528 3.902-1.612 1.499-3.988 1.583-7.24 1.583-3.082 0-6.109-.367-7.465-2.29-.877-1.245-.877-2.912-.877-4.581V40.03h4.525v.849c0 .736.028 1.583.452 2.291.68 1.13 1.753 1.244 2.772 1.244.565 0 1.385-.085 1.95-.65.538-.538.623-1.245.623-1.895 0-.566-.029-1.132-.481-1.64-.31-.34-.847-.708-1.753-.708h-1.81v-3.62h1.923c.905 0 1.385-.424 1.612-.735.34-.452.31-.962.31-1.442 0-.565.086-1.075-.451-1.64-.622-.651-1.302-.68-1.923-.68-.764 0-1.696.086-2.376.765-.65.678-.736 1.583-.736 2.431v.877h-4.241v-1.669M449.285 28.012v10.011h.114l3.76-10.01h6.788v19.795h-6.788V37.797h-.114l-3.76 10.011h-6.788V28.012h6.788M469.848 28.012v7.72h1.583c.538 0 1.132-.027 1.556-.621.368-.482.396-1.216.396-2.46v-2.008c0-1.104.254-2.009 1.074-2.63h6.562c-.482.452-1.246 1.357-1.246 3.535v1.922c0 1.527-.253 2.235-.932 2.998-.453.51-.961.905-1.838 1.075v.084c.933.142 1.866.567 2.348 1.301.396.594.593 1.556.649 2.292l.085 1.356c.086 1.527-.028 2.857.934 4.215.226.338.622.734.933 1.017h-6.448a2.268 2.268 0 0 1-1.188-.792c-.537-.707-.593-1.893-.621-2.94l-.058-1.952c-.028-.876 0-1.612-.706-2.149-.51-.396-1.131-.396-1.698-.396h-1.385v8.23h-6.788V28.011h6.788M499.97 47.808h-6.787V31.915h-3.734l-.254 5.26c-.028.679-.056 1.357-.086 2.036l-.169 2.602c-.084 1.245-.084 2.686-.68 3.931-.283.594-.733 1.216-1.61 1.612-.82.367-2.207.452-2.942.452h-1.413v-4.043h.622c.934 0 1.299-.482 1.386-.622.14-.227.254-.567.396-1.782.224-1.951.224-3.281.281-4.922.03-.593.057-1.215.085-1.81.028-.876.058-1.752.084-2.63l.143-3.987h14.677v19.796M511.795 41.728l-1.896-7.833-1.838 7.833zm3.733-13.716l4.976 19.796h-7.268l-.593-2.46h-5.459l-.595 2.46h-5.061l4.977-19.796h9.023" fill="#231f20"/><path d="M0 13.343L22.456.004l22.223 12.872v44.025L22.456 69.68 0 56.901" fill="#ef2e2f"/><path d="M36.784 55.952l5.772-3.544-17.31-10.013-.004.002V11.14l.002-.002V4.341L2.122 17.761v6.797l.04-.024v31.418l17.312 9.994 5.77-3.345-17.31-10.014h-.002V21.186l2.883-1.673v31.454l8.824 4.978 5.605-3.439-8.659-4.87V16.163l2.886-1.675v31.468l.48-.275-.426.264 17.259 10.007" fill="#231f20"/><path d="M36.784 19.216l-5.88 21.548-5.66-14.879-5.77 3.327v36.734l5.77-3.33V42.347l2.962 8.63 5.863-3.48 2.715-10.874V55.95l5.77-3.542V15.89l-5.77 3.327" fill="#fff"/></svg>