<svg id="Layer_1" xmlns="http://www.w3.org/2000/svg" viewBox="0 0 317 120.3"><style>.st1{fill-rule:evenodd;clip-rule:evenodd;fill:#7aa52a}.st2{fill:#fff}</style><path fill-rule="evenodd" clip-rule="evenodd" d="M29.3 37.5h255.1v47.6H29.3z"/><path class="st1" d="M181.6 74.7h14.5c.4 0 .7-.3.7-.7v-1.9c0-.4-.3-.7-.7-.7h-12.9c-.3 0-.6-.2-.6-.5V47.4c0-.4-.4-.8-.8-.8h-4c-.4 0-.8.4-.8.8v23c0 2.8 2.1 4.3 4.6 4.3zM206.6 47.4c0-.5-.4-.8-.8-.8h-4c-.4 0-.8.4-.8.8v26.5c0 .4.4.8.8.8h4c.4 0 .8-.4.8-.8V47.4zM242 46.6h14.5c.4 0 .7.3.7.7v1.9c0 .4-.3.7-.7.7h-12.9c-.3 0-.6.2-.6.5v8.3h8.6c.4 0 .7.3.7.7v1.8c0 .4-.3.7-.7.7H243v8.9c0 .3.3.5.6.5h12.9c.4 0 .7.3.7.7v2c0 .4-.3.7-.7.7H242c-2.5 0-4.6-1.5-4.6-4.3V50.9c.1-2.8 2.1-4.3 4.6-4.3zM218.5 46.6H233c.4 0 .7.3.7.7v1.9c0 .4-.3.7-.7.7h-13c-.3 0-.6.2-.6.5v9.1h8.7c.4 0 .7.3.7.7V62c0 .4-.3.7-.7.7h-8.7v11.1c0 .4-.4.8-.8.8h-4c-.4 0-.8-.4-.8-.8v-23c.1-2.7 2.1-4.2 4.7-4.2z"/><circle class="st2" cx="120.1" cy="72.3" r="2.3"/><path class="st2" d="M119 46.9c-.3 0-.5 0-.6.3-.1.2-.1.4 0 .6l8.8 22.3c.4 1 1 2.4 1.7 3.4.9 1.2 2.1 1.7 4.1 1.5.8-.1 1.8-.2 2.8-.5l6.8-17.1 5.1 13c.5 1.2 1.1 2.3 1.7 3.1.8 1.1 2.1 1.5 4 1.4 1-.1 2-.3 2.8-.5l10.6-26.7c.1-.3.1-.6 0-.7-.1-.1-.2-.2-.5-.2h-3c-.7 0-.9.2-1.1.8l-7.4 18.7-.8 2.2-.8-2.2-7.4-18.6c-.2-.6-.4-.8-1-.8h-2c-.6 0-.8.2-1 .8l-7.3 18.6-.8 2.3-.8-2.3-7.5-18.9c-.1-.4-.3-.4-.8-.4H119z"/><circle class="st2" cx="162.9" cy="72.3" r="2.3"/><circle class="st2" cx="81.2" cy="72.3" r="2.3"/><path class="st2" d="M105.2 50c-.6-1.6-1.3-2.6-2-3.1s-1.9-.7-3.6-.5c-.9.1-1.7.3-2.6.4L86.4 73.5c-.1.3-.1.5 0 .7.1.1.2.2.5.2h3c.6 0 .8-.2 1-.8l2.5-6.4h11.3l2.4 6.1c.3.8.7 1 1.6 1h5.2c.2 0 .3-.1.4-.2.1-.2.1-.4 0-.6L105.2 50zM95.1 63.1l3-8 1-2.6.9 2.6 3.1 8h-8zM64.4 65.4l5.1 10.2c.7 1.5 2.2 3.3 4.9 3.3H78c.2 0 .4-.1.5-.3.1-.2.1-.4 0-.6l-6.1-11.7c-.5-1-1-1.7-1.9-2.3l-.5-.3.6-.1c1-.2 1.8-.6 2.4-1 2-1.4 3.1-3.5 3.2-6.3.1-2.2-.5-4.3-1.6-5.9-1.2-1.6-2.9-2.7-5.2-3.2-1.6-.3-3.2-.4-4.8-.4h-8.1c-2.2 0-4.6 1.5-4.6 4.3v22.8c0 .3.2.6.5.6H58c.3 0 .5-.3.5-.6v-9.1h4.9c.6 0 .7.1 1 .6zm-5.9-13.5c0-.4.4-.8.8-.8H64c.9 0 2.1.3 2.9.7.6.3 1 .7 1.4 1.2 1.2 1.6 1.2 4.1 0 5.7-.4.6-.8.9-1.4 1.2-.8.4-1.9.7-2.9.7h-5.6v-8.7zM260.6 48.2c0-.9.3-1.7 1-2.4s1.5-1 2.4-1c.9 0 1.7.3 2.4 1s1 1.5 1 2.4-.3 1.7-1 2.4-1.5 1-2.4 1c-.9 0-1.7-.3-2.4-1-.6-.7-1-1.5-1-2.4zm.6 0c0 .8.3 1.5.8 2 .5.6 1.2.8 2 .8s1.4-.3 2-.8c.5-.6.8-1.2.8-2s-.3-1.5-.8-2-1.2-.8-2-.8-1.5.3-2 .8-.8 1.2-.8 2zm3.2-1.8c.8 0 1.2.4 1.2 1.2 0 .6-.3.9-.8 1.1l.7 1.1c.1.1 0 .2-.1.2h-.2c-.1 0-.2 0-.2-.1l-.6-1.1h-1.1v1.1c0 .1 0 .1-.1.1h-.2c-.1 0-.1 0-.1-.1v-3.2c0-.1.1-.2.2-.2h1.3zm-1.2 1.8h1.2c.5 0 .7-.2.7-.6 0-.4-.2-.6-.7-.6h-1.2v1.2z"/></svg>