<svg xmlns="http://www.w3.org/2000/svg" height="81.6" width="340.16"><path d="M65.303 4.422c1.087 0 1.72-.583 1.72-1.582 0-.998-.633-1.607-1.72-1.607H62.97v3.19zm.114-4.244c1.755 0 2.868 1.01 2.868 2.662 0 1.643-1.084 2.64-2.868 2.64h-2.446v2.719c0 .226-.085.305-.335.305h-.544c-.24 0-.328-.08-.328-.305V.483c0-.221.088-.305.328-.305h3.325M75.162 1.233h-2.506v2.874h2.506c.984 0 1.544-.529 1.544-1.43 0-.927-.56-1.444-1.544-1.444zm.113-1.055c1.684 0 2.694.915 2.694 2.5 0 1.253-.675 2.086-1.834 2.331.224.12.435.343.623.658l1.385 2.52c.11.211.063.317-.174.317h-.549c-.413 0-.54-.047-.65-.27L75.638 6.09c-.363-.703-.739-.927-1.645-.927h-1.337v3.037c0 .226-.083.305-.334.305h-.546c-.24 0-.328-.08-.328-.305V.483c0-.221.087-.305.328-.305h3.5M86.716.178c.25 0 .328.084.328.305v.444c0 .223-.077.306-.328.306h-4.124v2.52h3.554c.247 0 .32.086.32.318v.434c0 .236-.073.303-.32.303h-3.554V7.45h4.272c.253 0 .327.083.327.306V8.2c0 .226-.074.305-.327.305h-5.156c-.236 0-.327-.08-.327-.305V.483c0-.221.09-.305.327-.305h5.008M98.296.178c.236 0 .323.084.323.305V8.2c0 .226-.087.305-.323.305h-.5c-.25 0-.325-.08-.325-.305V3.967c0-.646.075-1.383.225-2.206h-.063c-.235.61-.573 1.265-.997 1.969l-1.58 2.65a.426.426 0 0 1-.39.225h-.307c-.164 0-.3-.07-.388-.224l-1.608-2.673a10.813 10.813 0 0 1-.935-1.947h-.075c.138.738.201 1.482.201 2.206v4.232c0 .226-.075.305-.324.305h-.473c-.24 0-.323-.08-.323-.305V.483c0-.221.083-.305.323-.305h.434c.261 0 .348.047.462.235l2.864 4.798L97.372.422c.115-.197.188-.244.448-.244h.476M102.335.483c0-.221.087-.305.323-.305h.548c.25 0 .336.084.336.305V8.2c0 .226-.087.305-.336.305h-.548c-.236 0-.323-.08-.323-.305V.483M108.39 5.667c0 1.232.761 1.958 2.209 1.958 1.443 0 2.205-.726 2.205-1.958V.483c0-.221.087-.305.336-.305h.547c.237 0 .324.084.324.305v5.174c0 1.875-1.183 3.023-3.412 3.023-2.209 0-3.404-1.148-3.404-3.023V.483c0-.221.074-.305.323-.305h.55c.247 0 .322.084.322.305v5.184M125.53.178c.236 0 .323.084.323.305V8.2c0 .226-.087.305-.324.305h-.5c-.249 0-.325-.08-.325-.305V3.967c0-.646.076-1.383.226-2.206h-.063c-.237.61-.573 1.265-.998 1.969l-1.583 2.65a.421.421 0 0 1-.385.225h-.312c-.162 0-.3-.07-.387-.224l-1.606-2.673a10.672 10.672 0 0 1-.935-1.947h-.075c.135.738.198 1.482.198 2.206v4.232c0 .226-.075.305-.324.305h-.473c-.236 0-.323-.08-.323-.305V.483c0-.221.087-.305.323-.305h.436c.26 0 .351.047.463.235l2.866 4.798 2.854-4.789c.11-.197.186-.244.446-.244h.477M139.613.178c.247 0 .32.084.32.305v.444c0 .223-.073.306-.32.306h-4.125v2.64H139c.25 0 .325.083.325.305v.445c0 .235-.074.306-.325.306h-3.512v3.27c0 .226-.088.305-.339.305h-.549c-.237 0-.323-.08-.323-.305V.483c0-.221.086-.305.323-.305h5.013M146.828 1.233h-2.505v2.874h2.505c.984 0 1.547-.529 1.547-1.43 0-.927-.563-1.444-1.547-1.444zm.113-1.055c1.68 0 2.692.915 2.692 2.5 0 1.253-.673 2.086-1.833 2.331.221.12.436.343.621.658l1.383 2.52c.115.211.063.317-.17.317h-.551c-.41 0-.535-.047-.65-.27l-1.129-2.145c-.363-.703-.74-.927-1.647-.927h-1.334v3.037c0 .226-.087.305-.339.305h-.544c-.241 0-.325-.08-.325-.305V.483c0-.221.084-.305.325-.305h3.501M154.179 5.667c0 1.232.761 1.958 2.209 1.958 1.444 0 2.205-.726 2.205-1.958V.483c0-.221.088-.305.335-.305h.547c.237 0 .325.084.325.305v5.174c0 1.875-1.181 3.023-3.412 3.023-2.21 0-3.403-1.148-3.403-3.023V.483c0-.221.075-.305.326-.305h.545c.25 0 .323.084.323.305v5.184M163.452.483c0-.221.09-.305.325-.305h.55c.25 0 .334.084.334.305V8.2c0 .226-.084.305-.334.305h-.55c-.236 0-.325-.08-.325-.305V.483M173.861.178c.234 0 .322.084.322.305v.444c0 .223-.088.306-.322.306h-2.36v6.966c0 .226-.073.305-.322.305h-.547c-.25 0-.323-.08-.323-.305V1.233h-2.353c-.253 0-.33-.083-.33-.306V.483c0-.221.077-.305.33-.305h5.905M184.267.927c-.758 0-1.272.519-1.272 1.164 0 .512.262.868.864 1.43l.368-.178c.888-.384 1.248-.652 1.248-1.325 0-.598-.522-1.09-1.208-1.09zm-.635 3.752c-.935.39-1.372.884-1.372 1.632 0 .785.65 1.371 1.484 1.371.684 0 1.172-.268 2.019-1.004zM182.571.612c.41-.41.988-.61 1.696-.61.637 0 1.17.2 1.606.585.44.388.65.869.65 1.421 0 1.032-.55 1.617-1.83 2.17l-.126.059 1.918 1.793.824-.752c.126-.128.26-.128.394 0l.38.365c.11.106.098.223-.028.33l-.848.785 1.545 1.467c.173.185.127.28-.133.28h-.702a.602.602 0 0 1-.45-.178l-.982-.913c-.572.505-1.061.83-1.458 1.01a3.43 3.43 0 0 1-1.346.256c-.736 0-1.345-.223-1.833-.682-.485-.446-.721-1.018-.721-1.708 0-1.128.673-1.82 1.782-2.334-.649-.646-.972-1.265-.972-1.879 0-.574.211-1.055.634-1.465M202.937.178c.238 0 .323.084.323.305V8.2c0 .226-.085.305-.323.305h-.548c-.153 0-.26-.047-.336-.153L198.5 3.485a8.384 8.384 0 0 1-.636-1.104l-.375-.698h-.058s.036.278.11.807c.063.526.098.985.098 1.372v4.337c0 .226-.086.305-.334.305h-.513c-.233 0-.323-.08-.323-.305V.483c0-.221.09-.305.323-.305h.552c.145 0 .26.047.319.153l3.502 4.784c.226.319.463.691.699 1.151.236.456.363.703.372.728h.067c0-.025-.036-.306-.1-.848a12.424 12.424 0 0 1-.103-1.42V.482c0-.221.076-.305.324-.305h.513M208.108 5.667c0 1.232.761 1.958 2.205 1.958s2.21-.726 2.21-1.958V.483c0-.221.086-.305.336-.305h.548c.236 0 .322.084.322.305v5.174c0 1.875-1.182 3.023-3.416 3.023-2.205 0-3.4-1.148-3.4-3.023V.483c0-.221.075-.305.324-.305h.548c.248 0 .323.084.323.305v5.184M222.865.178c.236 0 .324.084.324.305v.444c0 .223-.088.306-.324.306h-2.354v6.966c0 .226-.076.305-.323.305h-.55c-.247 0-.323-.08-.323-.305V1.233h-2.355c-.248 0-.327-.083-.327-.306V.483c0-.221.079-.305.327-.305h5.905M234.443 4.79h-2.679v2.66h2.679c.958 0 1.444-.446 1.444-1.324 0-.858-.506-1.337-1.444-1.337zm-.208-3.557h-2.471v2.52h2.47c.918 0 1.38-.422 1.38-1.254 0-.842-.462-1.266-1.38-1.266zm.133-1.055c1.557 0 2.481.765 2.481 2.16 0 .891-.364 1.5-1.073 1.826v.035c.935.258 1.392.939 1.392 2.042 0 1.441-1.056 2.263-2.687 2.263h-3.605c-.236 0-.323-.08-.323-.305V.483c0-.221.087-.305.323-.305h3.492M243.78 2.314c-.15-.41-.225-.787-.225-1.105h-.071l-.016.164c-.016.201-.09.613-.205.927l-1.259 3.098h3.019zm3.66 5.885c.08.2 0 .305-.22.305h-.49c-.398 0-.509-.047-.595-.27l-.774-1.91h-3.688l-.773 1.91c-.087.223-.201.27-.595.27h-.442c-.224 0-.296-.106-.224-.305l3.245-7.786c.06-.176.193-.259.41-.259h.494c.213 0 .353.083.413.247L247.44 8.2M253.984 1.233h-2.505v2.874h2.505c.987 0 1.543-.529 1.543-1.43 0-.927-.556-1.444-1.543-1.444zm.11-1.055c1.685 0 2.695.915 2.695 2.5 0 1.253-.674 2.086-1.83 2.331.225.12.433.343.624.658l1.38 2.52c.11.211.06.317-.174.317h-.548c-.414 0-.533-.047-.652-.27l-1.13-2.145c-.364-.703-.739-.927-1.647-.927h-1.333v3.037c0 .226-.082.305-.335.305h-.552c-.232 0-.32-.08-.32-.305V.483c0-.221.088-.305.32-.305h3.503M34.413.192H29.02c-.244 0-.36.12-.36.363V.87c0 .246.116.363.36.363h2.146V8.13c0 .244.118.363.363.363h.375c.244 0 .363-.119.363-.363V1.233h2.146c.242 0 .362-.117.362-.363V.555c0-.244-.12-.363-.362-.363M43.797.192h-.372c-.243 0-.366.12-.366.363v3.212h-4.036V.555c0-.157-.035-.363-.35-.363H38.3c-.245 0-.36.12-.36.363V8.13c0 .244.115.363.36.363h.372c.316 0 .351-.21.351-.363V4.806h4.036V8.13c0 .244.123.363.366.363h.372c.219 0 .35-.138.35-.363V.555c0-.227-.131-.363-.35-.363M52.68 7.454h-4V4.806h3.345c.22 0 .351-.134.351-.362V4.13c0-.228-.132-.363-.35-.363H48.68V1.233h3.854c.221 0 .35-.134.35-.363V.555c0-.227-.129-.363-.35-.363h-4.58c-.24 0-.358.12-.358.363V8.13c0 .244.118.363.358.363h4.726c.225 0 .353-.138.353-.363v-.316c0-.228-.128-.36-.353-.36" fill="#231f20"/><path d="M340.157 81.6H0V18.145h340.157v63.453" fill="#231f20" fill-rule="evenodd"/><path d="M203.012 67.684H222.4a.946.946 0 0 0 .944-.941v-2.47a.947.947 0 0 0-.944-.942h-17.255c-.428 0-.769-.262-.769-.703V31.324c0-.6-.479-1.093-1.057-1.093h-5.343c-.58 0-1.056.492-1.056 1.093V61.99c0 3.64 2.74 5.694 6.092 5.694M236.424 31.328c0-.603-.48-1.097-1.06-1.097h-5.341c-.579 0-1.056.494-1.056 1.097v35.267c0 .6.477 1.089 1.056 1.089h5.341c.58 0 1.06-.493 1.06-1.089V31.328M283.653 30.23h19.387c.521 0 .94.427.94.945v2.467a.94.94 0 0 1-.94.94h-17.256c-.427 0-.767.263-.767.706v11.128h11.442c.518 0 .944.426.944.942v2.467a.946.946 0 0 1-.944.941h-11.442v11.862c0 .441.34.703.767.703h17.256c.521 0 .94.425.94.941v2.47a.94.94 0 0 1-.94.942h-19.387c-3.349 0-6.096-2.055-6.096-5.694V35.925c0-3.638 2.747-5.694 6.096-5.694M252.195 30.23h19.388c.52 0 .944.427.944.945v2.467c0 .518-.424.94-.944.94h-17.256c-.427 0-.768.263-.768.706v12.124h11.578c.515 0 .943.422.943.944v2.463a.95.95 0 0 1-.943.945H253.56v14.831c0 .596-.476 1.089-1.055 1.089h-5.347c-.576 0-1.056-.49-1.056-1.089v-30.67c0-3.638 2.742-5.694 6.094-5.694" fill="#56a835" fill-rule="evenodd"/><path d="M121 61.517a3.022 3.022 0 0 0-3.02 3.016 3.018 3.018 0 0 0 6.035 0A3.019 3.019 0 0 0 121 61.517M119.533 30.565c-.452 0-.636.051-.772.34a.965.965 0 0 0-.03.754l11.704 29.796c.529 1.34 1.36 3.213 2.32 4.523 1.198 1.632 2.852 2.241 5.532 2.04a23.601 23.601 0 0 0 3.69-.616l9.014-22.77 6.832 17.39c.637 1.622 1.433 3.103 2.238 4.171 1.079 1.42 2.839 2.017 5.388 1.824 1.338-.102 2.662-.377 3.694-.617l14.109-35.636c.155-.39.15-.75-.007-.962-.12-.16-.33-.243-.626-.243h-3.943c-.881 0-1.144.3-1.427 1.017l-9.85 24.888-1.055 2.873-1.068-2.9-9.83-24.855c-.303-.768-.547-1.023-1.395-1.023h-2.63c-.854 0-1.046.28-1.338 1.018l-9.79 24.741-1.117 3.069-1.112-3.069-9.962-25.193c-.19-.483-.423-.56-1.074-.56h-7.495M178.103 67.548a3.018 3.018 0 0 0 3.014-3.015 3.018 3.018 0 0 0-3.014-3.016 3.021 3.021 0 0 0-3.019 3.016 3.02 3.02 0 0 0 3.019 3.015M69.226 61.517a3.02 3.02 0 0 0-3.019 3.016 3.02 3.02 0 0 0 3.019 3.015 3.02 3.02 0 0 0 3.017-3.015 3.02 3.02 0 0 0-3.017-3.016M87.725 52.272l4.05-10.643 1.283-3.52 1.258 3.446 4.071 10.717zm13.413-17.5c-.815-2.077-1.696-3.43-2.697-4.137-.975-.686-2.537-.918-4.771-.709-1.163.108-2.306.35-3.413.59l-14.104 35.63c-.186.467-.184.707.008.959.094.12.242.246.624.246h4.033c.859 0 1.04-.264 1.336-1.015l3.363-8.502h15.076l3.236 8.183c.451 1.132.954 1.334 2.144 1.334h6.92c.245 0 .438-.094.56-.271.146-.22.168-.533.054-.82L101.138 34.77M38.92 37.275c0-.587.494-1.065 1.1-1.065h6.306c1.255 0 2.753.353 3.815.896a5.196 5.196 0 0 1 1.898 1.655c1.55 2.175 1.55 5.457 0 7.634a5.101 5.101 0 0 1-1.897 1.65c-1.055.547-2.553.898-3.816.898H38.92zm7.844 18.023l6.765 13.578c.994 2 2.93 4.38 6.503 4.38h.009l4.865-.004c.27 0 .5-.13.62-.347.12-.225.108-.497-.037-.765l-8.186-15.602c-.707-1.353-1.374-2.327-2.517-3.001l-.694-.409.783-.195c1.327-.33 2.336-.765 3.175-1.365 2.645-1.887 4.073-4.693 4.245-8.336.138-2.922-.628-5.716-2.159-7.867-1.542-2.164-3.885-3.612-6.964-4.3-2.086-.465-4.206-.504-6.378-.504H35.991c-2.95 0-6.087 1.987-6.087 5.67v30.364c0 .412.333.758.726.758h7.565c.4 0 .725-.34.725-.758V54.524h6.56c.718 0 .944.091 1.284.774M311.836 32.4h1.59c.635 0 .937-.278.937-.865 0-.583-.302-.863-.936-.863h-1.591zm1.617-2.409c1.028 0 1.64.588 1.64 1.544 0 .773-.349 1.263-1.058 1.429l.892 1.495c.114.166.045.258-.166.258h-.324c-.142 0-.236-.045-.305-.162l-.867-1.52h-1.429v1.52c0 .117-.067.162-.185.162h-.328c-.119 0-.187-.045-.187-.162v-4.33c0-.164.095-.234.253-.234zm-4.257 2.365c0 1.054.373 1.963 1.124 2.69.719.749 1.637 1.121 2.688 1.121a3.55 3.55 0 0 0 2.641-1.12c.727-.749 1.103-1.637 1.103-2.691 0-1.054-.376-1.942-1.103-2.69a3.629 3.629 0 0 0-2.641-1.1c-1.05 0-1.97.377-2.688 1.1-.75.724-1.124 1.636-1.124 2.69zm-.77 0c0-1.238.438-2.316 1.357-3.204.888-.889 1.965-1.335 3.202-1.335 1.235 0 2.294.446 3.182 1.335.892.888 1.33 1.966 1.33 3.204a4.436 4.436 0 0 1-1.308 3.204c-.889.889-1.969 1.331-3.204 1.331-1.237 0-2.314-.442-3.202-1.33-.919-.889-1.358-1.967-1.358-3.205" fill="#fff"/></svg>