<svg width="323" height="193" xmlns="http://www.w3.org/2000/svg"><g fill="#0A0B09" fill-rule="evenodd"><path d="M161.412 181.566c-82.853 0-150.021-38.062-150.021-85.021 0-46.951 67.168-85.02 150.021-85.02 82.854 0 150.022 38.069 150.022 85.02 0 46.959-67.168 85.021-150.022 85.021zM308.293 57.197c-8.443-11.316-20.369-21.381-35.443-29.928C242.91 10.303 203.336.957 161.412.957c-41.92 0-81.498 9.346-111.437 26.312-15.075 8.547-27 18.612-35.444 29.928C5.326 69.529.66 82.769.66 96.545c0 13.777 4.666 27.019 13.871 39.351 8.444 11.315 20.369 21.381 35.444 29.926 29.939 16.969 69.517 26.315 111.437 26.315 41.924 0 81.498-9.346 111.438-26.315 15.074-8.545 27-18.611 35.443-29.926 9.207-12.332 13.877-25.574 13.877-39.351 0-13.776-4.67-27.016-13.877-39.348z"/><path d="M92.262 140.504V41.469H79.32v110.848h48.957v-11.813H92.262M187.932 53.285V41.469H138.98v110.848h48.952v-11.813h-36.008V97.988h27.508V86.17h-27.508V53.285h36.008M225.037 153.67c-13.463 0-24.412-10.95-24.412-24.412v-12.115h12.738v12.115c0 6.435 5.237 11.671 11.674 11.671 6.438 0 11.674-5.236 11.674-11.671v-14.579c0-6.089-4.377-11.306-11.012-11.818-3.842-.545-6.506-.876-9.379-1.937-3.205-1.183-5.677-2.608-7.381-4.25-5.205-4.626-8.314-11.059-8.314-18.027V64.785c0-13.461 10.949-24.412 24.412-24.412s24.412 10.951 24.412 24.412v13.356h-12.738V64.785c0-6.436-5.236-11.674-11.674-11.674-6.437 0-11.674 5.238-11.674 11.674v13.862c0 3.415 1.571 6.367 4.024 8.377 1.922 1.578 4.386 2.58 7.058 2.771 4 .562 6.299.943 8.754 1.812 3.178 1.126 5.774 2.67 8.051 4.825a24.452 24.452 0 0 1 8.199 18.247v14.579c0 13.462-10.949 24.412-24.412 24.412"/></g></svg>