<?xml version="1.0" encoding="UTF-8"?>
<svg width="1280px" height="644px" viewBox="0 0 1280 644" version="1.1" xmlns="http://www.w3.org/2000/svg" xmlns:xlink="http://www.w3.org/1999/xlink">
    <!-- Generator: sketchtool 52.5 (67469) - http://www.bohemiancoding.com/sketch -->
    <title>DB96FEF3-CBE0-4974-A59B-CE0A24776199</title>
    <desc>Created with sketchtool.</desc>
    <g id="Page-1" stroke="none" stroke-width="1" fill="#000000" fill-rule="evenodd">
        <g id="index-2--web" transform="translate(0.000000, -575.000000)">
            <g id="MAIN" transform="translate(-1.000000, 120.000000)">
                <g id="What-is-this?" transform="translate(1.000000, 455.000000)">
                    <g id="background">
                        <polygon id="Rectangle-3" fill="#C7C8C9" points="0 138 1280 78 1280 584 0 644"></polygon>
                        <path fill="#ffffff" d="M733,103 C721,103 697.12948,130.374404 697.12948,144.165593 C697.12948,147.556685 697.311228,150.437298 697.674725,152.807433 L694.847155,153.591623 C691.360208,136.224703 691.360208,122.902666 694.847155,113.625512 C698.334102,104.348358 700.73816,98.7757776 702.059328,96.9077701 C730.686443,100.969257 741,103 733,103 Z" id="Path-3"></path>
                        <path fill="#C7C8C9" d="M672.437512,163.307508 C672.437512,163.307508 675.432969,136.348394 662.08957,115.107881 C648.74617,93.867367 634.585828,82.7024815 634.585828,82.7024815 C634.585828,82.7024815 640.032113,84.8809958 648.201542,81.0685958 C656.37097,77.2561959 663.99577,76.9838817 671.348255,82.9747958 C678.700741,88.9657099 683.874712,94.8368058 697.490426,86.0465009 C711.10614,77.2561959 708.110683,64.4574248 698.851997,58.1941964 C689.593312,51.930968 675.160655,38.3152541 671.075941,32.3243399 C666.991227,26.3334258 668.352798,24.4272258 660.727998,22.5210259 C653.103199,20.6148259 649.018484,18.9809403 649.018484,18.9809403 L654.192456,0.191255022 C654.192456,0.191255022 643.299885,-1.98725921 628.050285,8.36068339 C612.256057,7.27142627 585.024629,22.2487116 576.855201,56.5603107 C568.685772,90.8719099 580.395286,113.473995 582.846115,128.995909 C585.296943,144.517823 582.846115,152.959565 582.846115,152.959565 L595.100257,157.316594 C595.100257,157.316594 616.068457,175.017022 672.437512,163.307508" id="Fill-1" transform="translate(640.379997, 83.655745) scale(-1, 1) translate(-640.379997, -83.655745) "></path>
                    </g>
                </g>
            </g>
        </g>
    </g>
</svg>