<svg width="39" height="33" xmlns="http://www.w3.org/2000/svg"><g fill="none" fill-rule="evenodd"><path d="M29.084 8.016c-4.432-4.536-9.206-7-14.323-7.393C7.086.035 6.357 6.844 13.02 7.491 7.197 8.206-.23 6.231.655 15.585c.886 9.354 2.91 16.746 9.394 15.95 6.484-.796 15.84-1.375 21.187-5.993 1.33-.331 2.517-.61 3.562-.836a4 4 0 0 0 3.123-4.397l-1.01-8.216a5 5 0 0 0-5.571-4.354l-2.256.277z" stroke="#DC512F" fill="#FF6D4A" stroke-linejoin="round"/><path d="M31.486 25.454s1.169-8.424-2.83-17.765" stroke="#DC512F" stroke-linecap="round"/><path d="M35.085 20.74a1.37 1.37 0 0 1-1.349-1.128l-1.228-6.833a1.286 1.286 0 0 1 1.068-1.5 1.297 1.297 0 0 1 1.484 1.102l1.012 7.224a.996.996 0 0 1-.987 1.135z" fill="#DC512F"/></g></svg>