<svg width="39" height="33" xmlns="http://www.w3.org/2000/svg"><g fill="none" fill-rule="evenodd"><path d="M9.916 8.016c4.432-4.536 9.206-7 14.323-7.393 7.675-.588 8.404 6.221 1.742 6.868 5.822.715 13.25-1.26 12.364 8.094-.886 9.354-2.91 16.746-9.394 15.95-6.484-.796-15.84-1.375-21.187-5.993-1.33-.331-2.517-.61-3.562-.836a4 4 0 0 1-3.123-4.397l1.01-8.216A5 5 0 0 1 7.66 7.739l2.256.277z" stroke="#DC512F" fill="#FF6D4A" stroke-linejoin="round"/><path d="M7.514 25.454s-1.169-8.424 2.83-17.765" stroke="#DC512F" stroke-linecap="round"/><path d="M3.915 20.74a1.37 1.37 0 0 0 1.349-1.128l1.228-6.833a1.286 1.286 0 0 0-1.068-1.5 1.297 1.297 0 0 0-1.484 1.102l-1.012 7.224a.996.996 0 0 0 .987 1.135z" fill="#DC512F"/></g></svg>