<svg width="162" height="168" xmlns="http://www.w3.org/2000/svg">
    <g fill="none" fill-rule="evenodd">
        <path fill="white" d="M159 103c-12 0-35.87 27.374-35.87 41.166 0 3.39.181 6.271.545 8.641l-2.828.785c-3.487-17.367-3.487-30.69 0-39.966 3.487-9.278 5.891-14.85 7.212-16.718C156.686 100.969 167 103 159 103z"/>
        <path fill="#f0f0f0" d="M34.322 163.308s-2.995-26.96 10.348-48.2c13.344-21.24 27.504-32.406 27.504-32.406s-5.446 2.179-13.616-1.633c-8.169-3.813-15.794-4.085-23.146 1.906-7.353 5.99-12.527 11.862-26.142 3.072-13.616-8.79-10.62-21.59-1.362-27.853 9.259-6.263 23.691-19.879 27.776-25.87 4.085-5.99 2.723-7.897 10.348-9.803 7.625-1.906 11.71-3.54 11.71-3.54L52.568.19S63.46-1.987 78.71 8.361c15.794-1.09 43.025 13.888 51.195 48.2 8.17 34.31-3.54 56.913-5.991 72.435-2.45 15.522 0 23.964 0 23.964l-12.254 4.357s-20.968 17.7-77.338 5.99"/>
    </g>
</svg>