<svg width="38" height="46" xmlns="http://www.w3.org/2000/svg"><path d="M13.028 31.486c3.534-5.626 7.285-8.583 7.285-8.583s-1.443.577-3.606-.432c-2.164-1.01-4.183-1.082-6.13.504-1.948 1.587-3.679 3.237-7.285.909-3.606-2.328-2.452-5.813 0-7.472 2.452-1.658 6.275-5.264 7.356-6.851 1.082-1.587.722-2.092 2.741-2.596 2.02-.505 3.101-.938 3.101-.938l-1.37-4.976s2.885-.577 6.923 2.163c4.183-.288 11.933 2.922 14.097 12.009 2.164 9.087-1.475 15.83-2.124 19.94-.65 4.112 0 6.347 0 6.347-5.866 3.895-13.776 4.809-23.728 2.741 0 0-.794-7.14 2.74-12.765z" fill="#FFC80A" stroke="#DCAD0A" fill-rule="evenodd" stroke-linejoin="round"/></svg>