<svg width="8" height="13" xmlns="http://www.w3.org/2000/svg"><path d="M5.728 8.586a.62.62 0 0 0-.234-.49c-.157-.134-.392-.272-.706-.416v1.722c.627-.105.94-.378.94-.816m-2.78-4.198c0 .203.07.37.211.502.14.13.368.266.681.404V3.67c-.595.088-.891.327-.891.719M7.81 8.482c0 .733-.265 1.322-.795 1.767-.53.445-1.272.712-2.227.8v1.417H3.84v-1.39c-1.125-.023-2.111-.221-2.959-.595V8.656c.4.198.884.373 1.448.525a7.704 7.704 0 0 0 1.511.27V7.306l-.463-.18c-.913-.36-1.559-.75-1.94-1.172-.38-.422-.57-.944-.57-1.567 0-.668.262-1.218.785-1.649.523-.43 1.252-.693 2.188-.785V.896h.948v1.03c1.056.046 2.01.258 2.863.636l-.65 1.62a7.444 7.444 0 0 0-2.213-.54v2.04c.9.345 1.539.645 1.919.899.38.254.66.532.837.837.177.304.266.658.266 1.064" fill="#A6E50F" fill-rule="evenodd" opacity="1"/></svg>