<svg width="138" height="47" xmlns="http://www.w3.org/2000/svg"><g fill="none" fill-rule="evenodd"><g fill="#212121"><path d="M35.949 15.44h-1.435v-3.313h9.495c1.126 0 1.612.486 1.612 1.612v3.047h-3.533v-.86c0-.31-.176-.487-.485-.487h-1.701v3.313h4.505v3.313h-4.505v5.852h-3.953V15.439zM48.011 15.22h3.202v-3.093H48.01v3.092zm-.286 5.012c0-.31-.177-.486-.486-.486h-.84v-3.202h3.534c1.126 0 1.612.486 1.612 1.612v6.073c0 .309.176.486.486.486h.838v3.201h-3.533c-1.126 0-1.611-.485-1.611-1.61v-6.074zM54.992 20.232c0-.31-.177-.486-.486-.486h-.839v-3.202h3.4c1.04 0 1.591.508 1.591 1.28v.155c0 .11-.022.266-.022.266h.044c.53-.884 1.59-1.966 3.6-1.966 2.296 0 4.085 1.06 4.085 4.262v3.687c0 .31.177.486.485.486h.84v3.203h-3.533c-1.127 0-1.613-.486-1.613-1.612v-5.058c0-1.06-.42-1.501-1.258-1.501-1.193 0-1.921.662-2.252 1.634-.155.442-.222.95-.222 1.502v5.035h-3.82v-7.685zM76.507 11.862c1.877 0 6.05.729 6.05 3.688v2.076h-3.532v-.862c0-.905-1.413-1.258-2.43-1.258-2.297 0-4.15 1.48-4.15 4.35 0 2.584 1.92 4.682 4.24 4.682 2.76 0 4.503-2.01 4.503-2.01l2.01 2.827s-2.385 2.827-6.58 2.827c-4.99 0-8.281-3.577-8.281-8.325 0-4.528 3.466-7.995 8.17-7.995M84.596 15.815c0-.309-.177-.486-.486-.486h-.839v-3.202h3.534c1.126 0 1.611.486 1.611 1.612v3.38c0 .574-.044.97-.044.97h.044c.64-1.126 1.967-1.81 3.468-1.81 2.297 0 4.085 1.06 4.085 4.262v3.688c0 .31.176.485.485.485h.84v3.203H93.76c-1.126 0-1.612-.486-1.612-1.613v-5.057c0-1.06-.42-1.5-1.258-1.5-1.171 0-1.943.683-2.274 1.677-.155.442-.2.927-.2 1.458v5.035h-3.82V15.815zM105.492 20.784c0-.928-.596-1.701-1.568-1.701-1.104 0-1.634.795-1.833 1.7h3.401zm-1.48-4.505c3.357 0 5.256 2.34 5.256 5.499 0 .397-.043.795-.088 1.192h-7.177c.287 1.39 1.435 2.032 2.65 2.032 1.126 0 2.208-.53 3.136-1.149l1.413 2.673c-1.237 1.06-3.113 1.656-4.859 1.656-4.063 0-6.249-2.938-6.249-5.963 0-3.335 2.253-5.94 5.918-5.94zM112.078 23.654s1.59 1.635 3.335 1.635c.552 0 .861-.155.861-.552 0-.95-5.698-1.259-5.698-4.947 0-2.451 2.274-3.51 4.682-3.51 1.855 0 4.417.529 4.417 2.583v1.346h-3.312v-.551c0-.31-.486-.53-1.039-.53-.53 0-1.016.177-1.016.53 0 1.17 5.764 1.015 5.764 4.836 0 2.296-2.01 3.688-4.66 3.688-3.268 0-5.035-2.076-5.035-2.076l1.701-2.452zM122.859 23.654s1.59 1.635 3.335 1.635c.552 0 .861-.155.861-.552 0-.95-5.698-1.259-5.698-4.947 0-2.451 2.274-3.51 4.683-3.51 1.854 0 4.416.529 4.416 2.583v1.346h-3.312v-.551c0-.31-.487-.53-1.039-.53-.53 0-1.016.177-1.016.53 0 1.17 5.764 1.015 5.764 4.836 0 2.296-2.01 3.688-4.66 3.688-3.268 0-5.035-2.076-5.035-2.076l1.701-2.452z"/></g><path d="M128.223 35.935h.522l1.094 2.247c.101.225.225.515.225.515h.014s.116-.283.225-.515l1.102-2.247h.515l.304 3.646h-.486l-.181-2.355c-.007-.196 0-.631 0-.631h-.015s-.08.231-.232.529l-1.014 2.037h-.45l-1.007-2.022c-.138-.283-.24-.544-.24-.544h-.014s.014.435 0 .63l-.182 2.356h-.478l.298-3.646zm-1.793 1.957v-.166h-.21c-.564 0-1.724.022-1.724.833 0 .34.275.696.818.696.704 0 1.116-.725 1.116-1.363zm0-.558v-.101c0-.703-.383-.943-.898-.943-.37 0-.74.131-1.036.348l-.225-.377c.29-.246.805-.413 1.29-.413.877 0 1.363.486 1.363 1.4v2.333h-.472v-.427c0-.182.022-.305.022-.305h-.014c-.188.442-.645.82-1.232.82-.616 0-1.232-.363-1.232-1.067 0-1.196 1.521-1.268 2.218-1.268h.216zm-4.66-.964h-1.327v-.435h3.153v.435h-1.334v3.211h-.493v-3.21zm-2.474 1.522v-.166h-.21c-.565 0-1.725.022-1.725.833 0 .34.275.696.818.696.704 0 1.117-.725 1.117-1.363zm0-.558v-.101c0-.703-.384-.943-.899-.943-.37 0-.74.131-1.036.348l-.225-.377c.29-.246.805-.413 1.29-.413.877 0 1.363.486 1.363 1.4v2.333h-.47v-.427c0-.182.02-.305.02-.305h-.014c-.188.442-.645.82-1.232.82-.616 0-1.232-.363-1.232-1.067 0-1.196 1.522-1.268 2.218-1.268h.217zm-7.156-1.399h.522l1.095 2.247c.1.225.225.515.225.515h.014s.115-.283.224-.515l1.102-2.247h.515l.305 3.646h-.486l-.182-2.355c-.007-.196 0-.631 0-.631h-.014s-.08.231-.232.529l-1.015 2.037h-.45l-1.007-2.022c-.137-.283-.239-.544-.239-.544h-.015s.015.435 0 .63l-.18 2.356h-.48l.298-3.646zm-2.799 1.747l-1.174-1.747h.58l.782 1.225c.058.095.124.21.124.21h.014s.066-.115.124-.21l.782-1.225h.573l-1.175 1.747 1.284 1.9h-.58l-.884-1.371c-.066-.094-.124-.203-.124-.203h-.014s-.058.102-.124.203l-.891 1.37h-.573l1.276-1.9zm-2.466.21v-.166h-.21c-.565 0-1.725.022-1.725.833 0 .34.276.696.819.696.703 0 1.116-.725 1.116-1.363zm0-.558v-.101c0-.703-.384-.943-.899-.943-.37 0-.74.131-1.036.348l-.225-.377c.29-.246.805-.413 1.29-.413.877 0 1.363.486 1.363 1.4v2.333h-.471v-.427c0-.182.021-.305.021-.305h-.014c-.188.442-.644.82-1.231.82-.617 0-1.233-.363-1.233-1.067 0-1.196 1.522-1.268 2.218-1.268h.217zm-7.851-1.399h.478v3.211h1.566v-3.21h.479v3.21h1.558v-3.21h.478v3.645h-4.56v-3.646zM95.78 37.74c0-.827-.638-1.45-1.42-1.45-.783 0-1.414.623-1.414 1.45 0 .855.631 1.479 1.414 1.479.782 0 1.42-.624 1.42-1.48zm.508 0a1.905 1.905 0 0 1-1.928 1.928 1.899 1.899 0 0 1-1.92-1.928c0-1.08.855-1.892 1.92-1.892 1.066 0 1.928.812 1.928 1.892zm-7.83-1.805h3.051v3.646h-.493v-3.21h-2.065v3.21h-.493v-3.646zm-3.263 1.827c0-.892-.48-1.465-1.16-1.465-.61 0-1.182.436-1.182 1.473 0 .731.413 1.456 1.16 1.456.645 0 1.182-.536 1.182-1.464zm-2.82-1.827h.471v.384c0 .16-.022.283-.022.283h.014c.226-.471.704-.754 1.269-.754.986 0 1.588.783 1.588 1.907 0 1.16-.682 1.913-1.631 1.913-.515 0-.964-.268-1.204-.725h-.014s.021.13.021.319v1.769h-.493v-5.096zm-4.286 0h.478v2.393c0 .224-.014.529-.021.543h.014c.015-.03.232-.34.378-.543l1.79-2.393h.471v3.646h-.486v-2.4c0-.21.022-.5.022-.528h-.015c-.007.036-.231.326-.369.529l-1.79 2.4h-.472v-3.647zm-4.292 0h.493v1.558h2.13v-1.558h.494v3.646h-.493v-1.653H74.29v1.653h-.493v-3.646zm-1.451 1.827c0-.892-.478-1.465-1.16-1.465-.609 0-1.182.436-1.182 1.473 0 .731.414 1.456 1.16 1.456.646 0 1.182-.536 1.182-1.464zm-2.82-1.827h.471v.384c0 .16-.021.283-.021.283h.014c.225-.471.703-.754 1.269-.754.986 0 1.587.783 1.587 1.907 0 1.16-.681 1.913-1.631 1.913-.515 0-.964-.268-1.203-.725h-.015s.022.13.022.319v1.769h-.493v-5.096zm-2.943 4.132l.217-.522-1.515-3.61h.543l1.066 2.66c.072.182.138.384.138.384h.015s.05-.202.123-.384l1.05-2.66h.53l-1.798 4.407c-.189.464-.558.761-1.044.761-.376 0-.645-.217-.645-.217l.189-.391s.202.166.435.166c.318 0 .55-.26.696-.594zm-3.452-3.697h-1.327v-.435h3.154v.435h-1.334v3.211h-.493v-3.21zm-8.358 1.312l-1.175-1.747h.58l.783 1.225c.058.095.123.21.123.21h.014s.066-.115.124-.21l.783-1.225h.572l-1.173 1.747 1.282 1.9h-.58l-.884-1.371c-.065-.094-.124-.203-.124-.203h-.014s-.058.102-.123.203l-.892 1.37h-.572l1.276-1.9zm-2.235-.297c-.029-.761-.493-1.13-1.036-1.13-.61 0-1.138.398-1.254 1.13h2.29zm.5.145c0 .08-.007.167-.014.247h-2.798c.022.927.66 1.442 1.414 1.442.398 0 .812-.167 1.109-.435l.225.377c-.34.311-.87.507-1.349.507-1.087 0-1.913-.782-1.913-1.906 0-1.196.819-1.914 1.804-1.914 1.008 0 1.523.776 1.523 1.682zm-5.51-1.16h-1.326v-.435h3.154v.435h-1.335v3.211h-.492v-3.21zm-5.198-.435h.493v1.558h2.131v-1.558h.493v3.646h-.493v-1.653h-2.13v1.653h-.494v-3.646zm-4.285 0h.478v2.393c0 .224-.014.529-.021.543h.014c.015-.03.232-.34.377-.543l1.79-2.393h.472v3.646h-.486v-2.4c0-.21.022-.5.022-.528h-.015c-.007.036-.232.326-.369.529l-1.791 2.4h-.471v-3.647zm-3.307-.747v3.393c1.145 0 1.885-.624 1.885-1.704 0-1.073-.74-1.689-1.885-1.689zm-.508 0c-1.138 0-1.877.616-1.877 1.69 0 1.08.74 1.703 1.877 1.703v-3.393zm0-1.044h.508v.61c1.42 0 2.4.819 2.4 2.123 0 1.313-.972 2.131-2.4 2.131v.66h-.508v-.66c-1.427 0-2.399-.818-2.399-2.13 0-1.305.972-2.125 2.4-2.125v-.609zM58 37.5h3v.5h-3v-.5z" fill="#989898"/><path d="M13.149 15.12c2.492 0 4.882.214 7.097.604l1.219-6.864a.912.912 0 0 0-.72-1.059c-.418-.08-.843-.153-1.274-.22a.916.916 0 0 0-1.026.697l-.465 1.959h-2.898V5.93a.914.914 0 0 0-.884-.917 38.844 38.844 0 0 0-2.098 0 .913.913 0 0 0-.883.917v4.306h-2.9l-.465-1.96a.916.916 0 0 0-1.025-.696c-.431.067-.856.14-1.275.22a.912.912 0 0 0-.72 1.059l1.22 6.864a41.043 41.043 0 0 1 7.097-.603m-7.404 4.772c2.339-.509 4.838-.766 7.43-.766 2.572 0 5.055.254 7.38.755a1.438 1.438 0 1 0 .606-2.813c-2.523-.543-5.21-.82-7.986-.82-2.797 0-5.502.28-8.042.832a1.44 1.44 0 0 0 .612 2.812m15.324 12.952c0 3.107-2.324 5.703-5.853 6.336v1.886a.921.921 0 0 1-.921.92h-1.598a.92.92 0 0 1-.92-.92V39.24c-4.556-.723-6.548-4.434-6.548-4.434l3.681-3.139s1.75 2.897 4.557 2.897c1.085 0 2.171-.392 2.171-1.6 0-2.534-9.775-2.594-9.775-9.684 0-.923.22-1.745.583-2.482a35.22 35.22 0 0 1 13.73.04c.067.285.109.584.109.903v2.354h-4.828v-.935c0-.785-.965-1.268-1.962-1.268-1.085 0-2.202.453-2.202 1.329 0 2.865 9.776 2.202 9.776 9.623" fill="#4DA1FF"/></g></svg>