<svg width="127" height="37" xmlns="http://www.w3.org/2000/svg"><g fill="#D6D6D6" fill-rule="evenodd"><path d="M31.558 14.613h-1.436v-3.312h9.496c1.126 0 1.612.486 1.612 1.612v3.047h-3.534v-.86c0-.31-.176-.487-.485-.487h-1.7v3.313h4.504v3.313h-4.504v5.852h-3.953V14.613zM43.62 14.393h3.201v-3.092H43.62v3.092zm-.287 5.013c0-.31-.177-.486-.486-.486h-.84v-3.203h3.535c1.126 0 1.611.486 1.611 1.613v6.073c0 .309.177.486.486.486h.84v3.201h-3.534c-1.126 0-1.612-.485-1.612-1.611v-6.073zM50.6 19.406c0-.31-.176-.486-.485-.486h-.839v-3.202h3.4c1.039 0 1.59.508 1.59 1.28v.155c0 .11-.021.265-.021.265h.044c.53-.883 1.59-1.965 3.6-1.965 2.296 0 4.085 1.06 4.085 4.262v3.687c0 .31.177.486.485.486h.84v3.203h-3.534c-1.126 0-1.612-.486-1.612-1.612V20.42c0-1.06-.42-1.501-1.258-1.501-1.193 0-1.922.662-2.253 1.634-.155.442-.221.95-.221 1.501v5.036H50.6v-7.685zM72.116 11.036c1.877 0 6.05.729 6.05 3.688V16.8h-3.532v-.862c0-.905-1.414-1.258-2.43-1.258-2.297 0-4.151 1.48-4.151 4.35 0 2.584 1.921 4.682 4.24 4.682 2.76 0 4.504-2.01 4.504-2.01l2.01 2.827s-2.385 2.827-6.58 2.827c-4.991 0-8.281-3.577-8.281-8.326 0-4.527 3.466-7.994 8.17-7.994M80.205 14.989c0-.31-.177-.486-.486-.486h-.84v-3.202h3.534c1.126 0 1.612.486 1.612 1.612v3.38c0 .574-.044.97-.044.97h.044c.64-1.126 1.966-1.81 3.467-1.81 2.297 0 4.086 1.06 4.086 4.261v3.689c0 .309.176.485.485.485h.84v3.203h-3.534c-1.126 0-1.612-.486-1.612-1.613v-5.057c0-1.06-.42-1.5-1.259-1.5-1.17 0-1.943.683-2.274 1.677-.155.442-.2.927-.2 1.458v5.035h-3.82V14.989zM101.1 19.958c0-.928-.595-1.701-1.567-1.701-1.105 0-1.634.795-1.833 1.7h3.4zm-1.479-4.505c3.357 0 5.256 2.34 5.256 5.498 0 .398-.044.796-.088 1.193H97.61c.288 1.39 1.436 2.032 2.651 2.032 1.126 0 2.208-.53 3.136-1.15l1.413 2.674c-1.237 1.06-3.114 1.656-4.859 1.656-4.063 0-6.25-2.938-6.25-5.963 0-3.335 2.253-5.94 5.919-5.94zM107.687 22.828s1.59 1.634 3.334 1.634c.553 0 .862-.154.862-.551 0-.95-5.698-1.259-5.698-4.947 0-2.451 2.274-3.511 4.682-3.511 1.855 0 4.416.53 4.416 2.583v1.347h-3.312v-.551c0-.31-.486-.53-1.038-.53-.53 0-1.016.177-1.016.53 0 1.17 5.764 1.015 5.764 4.836 0 2.296-2.01 3.688-4.66 3.688-3.269 0-5.035-2.076-5.035-2.076l1.7-2.452zM118.468 22.828s1.59 1.634 3.334 1.634c.553 0 .862-.154.862-.551 0-.95-5.698-1.259-5.698-4.947 0-2.451 2.274-3.511 4.682-3.511 1.855 0 4.417.53 4.417 2.583v1.347h-3.312v-.551c0-.31-.487-.53-1.039-.53-.53 0-1.016.177-1.016.53 0 1.17 5.764 1.015 5.764 4.836 0 2.296-2.01 3.688-4.66 3.688-3.269 0-5.035-2.076-5.035-2.076l1.7-2.452zM9.149 10.12c2.492 0 4.882.214 7.097.604l1.219-6.864a.912.912 0 0 0-.72-1.059c-.418-.08-.843-.153-1.274-.22a.916.916 0 0 0-1.026.697l-.465 1.959h-2.898V.93a.914.914 0 0 0-.884-.917 38.844 38.844 0 0 0-2.098 0 .913.913 0 0 0-.883.917v4.306h-2.9l-.465-1.96a.916.916 0 0 0-1.025-.696c-.431.067-.856.14-1.275.22a.912.912 0 0 0-.72 1.059l1.22 6.864a41.043 41.043 0 0 1 7.097-.603m-7.404 4.772c2.339-.509 4.838-.766 7.43-.766 2.572 0 5.055.254 7.38.755a1.438 1.438 0 1 0 .606-2.813c-2.523-.543-5.21-.82-7.986-.82-2.797 0-5.502.28-8.042.832a1.44 1.44 0 0 0 .612 2.812m15.324 12.952c0 3.107-2.324 5.703-5.853 6.336v1.886a.921.921 0 0 1-.921.92H8.697a.92.92 0 0 1-.92-.92V34.24c-4.556-.723-6.548-4.434-6.548-4.434l3.681-3.139s1.75 2.897 4.557 2.897c1.085 0 2.171-.392 2.171-1.6 0-2.534-9.775-2.594-9.775-9.684 0-.923.22-1.745.583-2.482a35.22 35.22 0 0 1 13.73.04c.067.285.109.584.109.903v2.354h-4.828v-.935c0-.785-.965-1.268-1.962-1.268-1.085 0-2.202.453-2.202 1.329 0 2.865 9.776 2.202 9.776 9.623"/></g></svg>